{"glyphs":{"0":{"ha":749,"x_min":44,"x_max":689,"o":"m 340 932 q 374 928 363 929 q 394 929 382 928 q 476 904 456 917 q 569 836 567 854 q 613 794 578 815 q 653 665 624 786 q 663 635 656 664 q 675 610 665 635 q 678 607 678 610 q 675 600 678 603 q 688 585 675 594 q 683 558 683 564 q 689 493 681 517 q 686 454 686 467 l 683 418 q 683 340 682 367 q 665 271 665 279 l 664 238 q 575 81 601 90 q 557 64 575 72 q 488 28 524 35 q 382 -17 410 -18 l 371 -15 l 308 1 q 256 6 285 4 q 238 3 254 6 q 172 75 238 7 q 124 122 172 82 q 99 161 103 142 q 89 181 93 161 l 92 192 l 72 242 q 64 296 74 268 q 50 336 50 329 l 51 360 q 44 465 46 403 q 50 490 49 483 q 51 567 51 524 q 56 600 54 588 l 54 613 q 88 713 67 631 q 119 768 94 719 q 196 858 147 817 q 244 893 236 893 q 340 932 308 925 m 347 868 q 299 843 343 861 q 272 833 297 839 q 231 774 236 794 q 207 728 225 774 q 197 710 201 729 q 188 701 188 704 l 186 682 q 193 657 186 672 q 190 571 193 604 l 190 563 q 178 538 181 550 q 182 468 182 511 q 189 410 189 468 q 188 407 189 407 q 189 406 186 406 l 186 396 q 192 293 190 360 q 201 254 194 293 q 210 229 210 238 l 208 208 l 242 174 q 238 158 238 161 q 239 156 238 156 l 238 146 l 236 121 q 274 85 236 106 q 335 63 297 72 l 344 63 q 422 74 365 61 q 469 86 468 72 q 503 117 481 104 q 528 150 526 129 q 538 201 531 149 q 539 294 539 269 q 558 378 557 351 l 558 383 q 553 426 553 418 l 554 456 q 546 478 556 468 l 546 481 q 556 511 554 501 q 554 583 554 565 l 556 592 q 543 656 556 599 q 529 713 542 713 q 510 747 524 729 q 485 835 506 804 q 461 851 469 851 q 418 843 440 846 q 386 865 399 864 q 347 868 368 868 z "},"1":{"ha":671,"x_min":67,"x_max":594,"o":"m 363 931 q 401 917 401 925 q 404 838 401 874 q 400 774 400 782 q 404 718 401 729 l 401 707 q 404 676 401 701 q 400 624 400 646 l 400 618 q 406 565 400 604 q 404 546 404 556 q 408 528 408 533 l 408 89 q 428 64 428 78 l 444 64 q 472 61 456 64 q 508 81 481 61 q 539 83 528 83 q 594 36 594 65 l 594 24 q 571 7 594 7 q 494 13 532 13 q 442 8 457 8 l 439 8 l 388 18 l 142 3 q 68 22 68 14 l 68 24 q 81 64 68 64 q 228 75 143 71 q 253 71 251 74 q 275 103 275 71 q 282 121 282 106 l 282 150 q 272 204 282 171 l 272 208 q 271 257 272 228 q 276 290 276 285 q 275 331 275 325 l 281 340 l 281 371 q 275 404 281 379 l 281 451 l 281 454 q 275 493 275 490 l 275 518 q 282 536 279 524 l 281 550 l 281 575 q 263 636 281 596 l 263 640 q 278 697 278 676 q 238 751 276 747 q 167 757 197 754 q 129 756 147 756 l 122 756 q 114 754 117 756 q 67 771 67 765 l 67 779 q 132 794 67 794 l 143 794 q 199 822 194 822 q 290 876 272 850 q 363 931 342 931 z "},"2":{"ha":772,"x_min":49,"x_max":707,"o":"m 314 918 q 388 904 324 918 l 396 904 q 403 907 400 904 q 503 876 489 883 q 606 807 558 854 q 658 713 640 785 l 663 689 l 663 679 q 658 614 663 638 q 660 607 658 614 q 621 499 660 547 q 592 446 608 479 q 567 408 581 413 q 543 393 567 404 q 464 317 492 354 q 383 260 431 308 q 340 231 365 243 q 293 197 318 208 l 274 169 q 239 142 239 154 l 239 132 q 286 118 239 121 q 306 114 286 114 l 307 114 q 372 124 372 121 l 382 122 l 397 122 q 414 126 400 122 l 421 126 q 515 136 479 126 q 563 132 547 136 q 593 157 593 140 l 607 235 l 611 274 l 610 300 q 629 356 610 344 q 664 367 636 363 l 668 367 q 692 318 692 350 q 686 254 686 286 q 692 224 686 251 l 692 203 q 690 185 692 196 q 697 161 697 169 q 693 142 697 142 q 697 117 697 133 l 697 104 q 696 88 697 97 q 703 14 701 79 q 707 1 707 14 q 696 -10 696 -10 l 693 -10 q 660 1 693 -3 q 633 -3 653 1 q 626 -1 631 -3 l 610 -3 l 519 4 q 506 3 511 3 q 358 11 431 11 l 196 11 q 168 13 185 11 l 100 4 l 100 7 q 82 -3 85 -1 q 49 21 49 -3 l 49 51 q 68 101 50 81 q 181 190 110 128 q 258 242 208 214 q 321 314 276 256 q 378 351 332 332 q 421 407 393 367 q 464 474 447 432 q 506 532 499 497 l 503 536 q 515 590 503 556 q 511 613 511 607 q 524 665 524 658 l 524 669 q 500 761 513 750 q 440 813 467 806 q 406 821 440 817 q 349 842 376 842 q 300 821 344 842 l 282 818 l 282 821 q 207 781 263 821 q 190 740 197 768 q 182 710 185 740 q 215 688 192 688 q 283 676 283 688 q 329 628 329 657 l 335 600 q 331 567 331 574 l 335 554 q 321 517 335 522 q 269 488 288 488 q 193 474 246 488 l 188 474 q 104 528 179 482 q 78 600 78 551 q 68 624 78 610 q 72 675 72 657 q 71 690 72 676 q 92 761 92 756 l 107 790 q 167 856 129 833 q 274 917 168 856 q 314 918 296 918 z "},"3":{"ha":754,"x_min":49,"x_max":701,"o":"m 326 924 q 368 921 335 924 q 410 922 393 922 q 436 908 422 913 q 492 893 454 893 q 592 836 496 893 q 657 713 647 763 l 657 693 q 653 664 653 664 q 654 642 653 660 q 619 583 633 590 q 567 544 604 563 q 526 514 561 544 l 497 497 q 488 481 488 489 l 488 469 q 519 447 494 457 q 582 400 550 435 q 667 340 625 385 q 697 246 697 299 q 701 232 701 246 q 700 168 700 185 q 676 126 693 161 q 617 78 654 97 q 576 40 583 40 l 515 14 q 486 18 497 18 q 450 -1 467 -1 q 433 3 438 3 l 411 3 q 368 -10 388 -10 q 347 -11 347 -10 q 243 3 243 -8 q 210 13 219 13 q 111 74 143 29 q 68 121 100 89 q 49 183 68 125 q 50 228 49 201 q 49 260 49 249 q 68 326 61 326 q 111 340 68 338 l 183 340 q 201 342 190 340 q 235 326 226 342 q 263 288 258 297 q 249 214 257 221 q 221 188 249 201 l 219 188 q 193 189 210 188 q 153 168 153 189 q 147 154 149 167 l 147 142 q 236 54 157 108 q 283 42 272 42 l 300 42 q 340 44 322 42 q 378 42 351 42 q 467 83 450 64 q 506 117 485 117 q 533 150 533 117 l 531 169 q 536 185 536 179 q 533 232 533 224 q 536 257 536 250 l 536 260 q 500 360 536 297 q 460 411 500 376 q 388 447 429 447 q 324 428 343 447 l 314 426 l 292 426 q 250 467 250 436 l 250 469 q 274 493 254 493 q 288 494 285 493 q 336 490 300 493 q 410 524 346 492 q 458 556 421 540 q 492 624 467 579 q 488 651 488 650 q 496 732 496 703 l 496 746 q 447 817 496 763 q 403 854 428 854 q 324 867 403 864 l 321 867 q 253 847 253 861 q 231 826 243 847 l 197 767 l 197 765 q 215 751 203 751 l 225 751 q 243 754 232 751 q 288 721 288 738 q 297 693 297 704 q 314 667 303 676 q 263 604 296 618 q 186 571 190 571 q 153 583 158 571 q 126 621 153 611 q 82 674 92 650 q 67 693 67 693 l 67 732 q 138 833 94 793 l 186 875 q 258 907 217 896 q 321 922 263 913 q 326 924 321 924 z "},"4":{"ha":814,"x_min":60,"x_max":751,"o":"m 535 942 q 581 904 581 936 q 590 846 588 904 q 571 760 590 828 l 571 751 q 575 724 571 739 q 569 704 569 710 q 571 675 569 688 q 564 561 569 603 l 564 531 q 569 478 569 493 q 568 388 569 442 l 581 360 q 579 332 579 343 q 599 317 579 324 q 717 332 622 325 l 735 332 q 751 307 751 322 l 751 300 q 722 264 751 264 q 717 256 719 256 l 711 256 q 683 261 708 256 l 671 261 q 564 247 657 254 l 558 240 l 564 204 q 556 140 561 164 q 583 97 556 132 q 607 64 596 64 q 724 65 646 64 q 751 31 751 60 q 724 -6 751 19 l 714 -6 q 679 -3 693 -6 q 651 -6 667 -6 q 626 1 640 -6 q 569 -6 569 -3 q 565 -3 565 -6 q 513 -6 529 -6 l 494 -6 q 421 1 428 1 q 354 -15 410 -7 q 340 -21 349 -21 l 313 -12 l 299 -12 q 274 -26 292 -12 l 256 -29 l 222 -10 q 207 31 210 -10 q 204 36 204 31 q 246 79 204 57 q 271 83 246 82 q 326 74 325 74 l 361 74 q 381 78 365 74 l 426 71 q 440 104 436 71 q 451 203 444 168 l 451 226 q 431 244 451 244 l 417 244 q 322 247 385 244 q 279 238 308 247 l 271 238 q 221 247 263 238 q 158 246 174 246 q 71 226 135 226 l 65 226 q 60 232 63 226 l 60 317 q 117 385 108 363 q 150 438 150 432 q 185 483 174 458 q 217 531 188 483 q 274 600 249 574 q 313 669 313 663 q 336 704 315 669 q 368 750 350 718 q 397 790 386 764 q 425 840 417 831 l 425 856 q 507 938 450 938 q 535 942 528 942 m 179 340 l 179 324 q 207 307 185 307 q 258 317 226 307 q 368 307 342 313 q 438 322 438 310 l 444 331 l 444 344 q 451 390 444 351 l 451 404 q 447 421 447 418 q 451 467 451 464 l 451 517 q 444 544 451 522 l 444 546 q 456 599 451 575 q 454 636 454 625 l 456 664 q 438 718 450 718 l 431 718 q 378 657 378 675 q 361 631 374 657 q 308 567 344 596 q 231 424 251 489 q 182 351 206 371 l 179 340 z "},"5":{"ha":700,"x_min":51,"x_max":656,"o":"m 543 936 q 563 918 549 936 l 563 914 q 561 907 563 910 q 565 894 565 900 q 539 865 550 885 q 503 826 521 826 q 483 807 497 826 q 432 790 450 800 q 371 793 396 793 l 360 793 l 347 803 q 279 800 293 800 q 226 790 251 790 l 207 790 q 176 742 181 765 q 157 589 157 714 q 181 575 175 575 l 193 575 q 242 604 240 604 q 272 622 260 614 q 294 618 281 618 l 304 618 q 332 632 310 624 q 343 638 332 635 q 372 632 368 632 q 426 640 396 640 q 465 617 426 632 l 493 593 q 560 554 549 571 q 590 522 560 551 q 618 464 613 479 q 632 438 624 463 q 643 424 640 433 l 642 414 q 647 340 646 414 q 656 322 656 326 q 643 275 656 310 q 651 231 651 233 l 651 228 q 594 128 635 208 q 517 38 588 89 l 476 17 q 403 -10 421 3 q 371 -7 382 -7 l 361 -7 q 332 -15 340 -15 q 269 -7 317 -15 q 261 -10 265 -10 q 226 13 238 3 l 208 13 q 179 38 185 38 q 113 81 161 40 q 94 103 99 81 q 83 144 83 121 l 85 147 q 63 189 71 169 q 51 213 58 189 l 51 244 q 69 285 51 257 q 71 300 71 293 l 71 308 q 110 338 86 329 q 167 347 110 343 q 175 351 167 351 q 185 347 182 347 l 194 350 q 229 332 214 332 q 256 285 256 308 l 253 271 q 256 251 256 261 q 242 214 256 246 q 208 189 242 206 q 175 168 208 182 q 147 136 147 149 l 147 128 q 176 93 147 110 q 185 90 185 93 l 189 93 l 196 93 q 238 85 208 93 l 247 88 q 285 81 272 81 l 299 81 q 326 89 304 81 q 360 83 350 83 q 394 99 376 83 q 460 131 444 126 q 476 169 469 143 q 486 201 483 169 q 500 222 493 201 q 513 289 513 222 q 517 307 514 289 q 508 346 508 344 l 510 357 q 508 375 508 368 q 513 393 508 383 q 493 446 506 419 q 438 528 474 493 l 419 538 q 386 554 403 547 l 385 564 q 329 561 340 561 l 313 564 q 285 536 313 561 q 269 528 285 531 q 243 542 269 540 q 193 469 206 508 q 183 450 190 469 l 163 433 q 143 431 151 431 q 99 444 99 431 q 86 461 86 450 l 86 465 q 94 521 94 507 l 94 524 q 100 538 100 532 l 100 544 q 103 578 100 563 q 100 599 100 588 q 108 650 108 626 q 103 688 103 682 l 103 742 q 104 743 103 743 l 103 747 l 103 808 q 129 900 103 888 l 175 900 q 207 890 190 900 q 281 879 267 890 q 300 876 292 876 l 336 876 q 357 875 344 876 q 510 932 397 875 l 528 933 l 528 932 q 543 936 540 936 z "},"6":{"ha":708,"x_min":60,"x_max":635,"o":"m 401 931 l 446 931 q 544 874 544 890 q 603 799 588 838 q 628 721 628 742 l 626 721 l 628 717 l 628 704 q 599 661 626 683 q 554 631 572 647 q 507 600 528 600 l 503 600 q 403 683 444 622 q 399 707 400 683 q 435 767 399 728 q 454 797 435 789 q 492 808 454 806 l 492 821 q 497 840 493 822 l 493 850 q 464 847 474 847 q 417 857 432 857 q 371 850 394 857 l 347 851 q 294 818 324 851 q 231 675 231 763 q 221 640 225 675 q 207 590 214 640 q 199 554 200 590 l 199 533 q 213 514 199 524 l 240 514 q 271 524 247 514 q 289 522 282 522 l 294 522 q 326 533 303 522 l 403 533 q 456 507 446 515 l 469 507 q 560 469 490 507 q 624 342 578 469 q 632 257 631 325 q 635 250 635 257 l 628 204 q 631 181 631 194 q 599 142 631 171 q 581 111 599 138 q 514 35 574 79 q 444 7 496 22 q 389 -3 444 3 q 338 -19 343 -19 l 328 -19 q 294 -10 315 -19 q 221 32 239 8 q 113 150 113 117 q 93 208 93 199 q 82 254 93 226 l 82 275 q 71 311 82 299 q 74 313 71 313 q 71 318 74 314 q 74 338 74 336 q 61 383 74 343 q 60 485 60 454 q 68 557 65 557 l 65 561 l 65 567 q 93 654 75 574 q 136 769 111 731 q 217 860 188 832 q 283 900 233 867 q 401 931 350 929 m 217 375 q 218 324 218 342 l 218 322 q 213 293 213 303 l 213 289 q 221 264 213 288 l 221 244 q 232 213 221 236 q 254 140 240 196 q 313 60 274 93 l 368 60 q 417 79 374 60 q 464 117 464 90 q 485 179 472 132 q 507 238 497 194 l 507 256 q 497 275 507 261 q 493 307 493 283 l 493 308 q 501 340 501 331 q 475 399 489 393 q 394 475 463 429 q 379 478 381 475 q 371 475 376 475 q 303 493 367 475 q 251 442 299 493 q 222 421 224 425 q 217 375 222 382 z "},"7":{"ha":753,"x_min":47,"x_max":694,"o":"m 165 944 l 171 944 q 203 918 203 919 l 203 904 q 257 863 203 863 l 258 863 q 314 871 303 871 l 318 871 q 319 868 319 871 q 376 876 353 876 l 390 876 l 439 868 q 515 878 476 878 q 558 868 554 868 q 625 886 563 868 q 644 888 632 888 q 694 847 694 885 q 656 790 685 818 q 619 757 646 790 q 586 724 597 740 q 539 643 539 678 q 476 532 485 576 q 453 472 465 513 q 429 428 444 463 q 419 381 425 428 q 404 310 404 351 q 392 272 392 292 l 392 243 q 372 214 392 226 l 371 201 l 371 196 q 415 110 397 196 l 415 99 q 386 10 400 10 q 351 -14 360 -14 q 251 6 303 -14 q 213 47 233 33 q 203 67 203 57 l 204 67 q 200 85 200 74 q 251 292 200 172 q 294 368 267 349 q 368 499 294 383 q 396 563 385 518 q 425 604 399 563 q 456 654 450 633 q 490 742 478 679 q 492 753 492 742 q 468 767 481 767 l 465 767 q 419 763 429 767 l 382 771 l 361 771 l 335 763 l 290 768 l 279 763 q 219 767 236 767 q 190 758 207 758 l 181 758 q 172 761 176 758 q 149 719 156 761 q 147 711 147 719 l 147 701 q 151 688 147 688 q 122 592 143 592 q 94 585 117 592 q 47 638 75 611 q 65 690 47 650 q 89 771 67 719 q 96 818 93 771 l 94 821 q 100 867 100 853 l 99 885 q 122 939 99 935 q 165 944 122 944 z "},"8":{"ha":806,"x_min":60,"x_max":744,"o":"m 367 929 q 442 925 414 926 q 497 908 464 908 q 565 883 567 901 q 621 821 576 854 q 668 751 621 815 l 669 739 l 668 722 q 671 675 671 678 l 671 665 q 643 607 660 628 q 621 572 626 576 q 572 543 610 563 q 543 522 543 525 l 542 483 q 572 458 540 468 q 671 406 575 454 q 694 369 679 392 q 733 306 706 347 q 744 261 744 288 l 744 257 q 731 228 743 247 q 729 222 731 225 q 731 204 731 211 l 731 199 q 719 157 724 183 q 668 96 700 131 q 629 53 653 63 q 572 21 592 35 q 522 8 556 21 q 414 -7 482 -10 l 357 -14 q 251 6 325 -4 q 125 81 194 24 q 100 118 100 100 q 78 158 88 146 q 61 192 71 158 q 60 267 63 236 q 76 292 72 281 q 107 332 107 331 q 175 394 160 394 q 232 422 175 397 q 238 442 238 436 q 208 483 239 471 q 139 540 188 489 q 94 603 114 553 q 88 701 85 628 q 128 792 111 768 q 176 860 158 860 q 213 892 189 864 q 267 913 240 896 l 282 913 q 365 929 296 913 l 367 929 m 213 746 l 213 739 q 231 660 214 696 q 272 607 263 614 q 353 560 340 571 l 374 561 l 393 560 q 433 551 408 560 l 439 550 q 508 619 508 611 q 531 693 518 639 l 539 724 q 526 803 525 788 q 476 865 488 839 q 425 885 468 883 q 389 892 389 886 q 308 878 321 893 q 228 813 240 833 q 213 746 224 779 m 208 207 q 236 125 208 181 q 331 46 249 85 l 376 44 l 453 51 l 521 79 q 581 122 567 78 l 596 147 l 596 160 q 608 194 596 164 l 610 222 q 578 293 610 246 l 506 363 q 474 379 500 363 l 450 378 l 436 378 q 358 400 436 385 q 324 411 358 407 l 314 410 l 310 411 q 283 399 297 411 q 233 314 236 376 q 208 207 211 261 z "},"9":{"ha":743,"x_min":53,"x_max":686,"o":"m 321 942 q 407 932 404 935 q 468 913 407 922 q 519 876 508 890 q 571 828 550 828 q 582 803 575 825 q 592 785 588 803 q 606 761 597 785 l 647 661 q 654 640 647 650 l 654 628 q 653 610 654 621 q 676 546 653 604 q 686 508 676 543 q 671 433 671 443 q 672 417 672 424 l 672 388 q 649 290 663 310 q 639 235 643 274 q 619 197 633 235 q 597 156 613 190 q 568 114 590 156 q 561 93 561 114 q 535 74 557 93 q 454 11 503 65 q 390 -12 396 -12 l 371 -12 q 368 -11 368 -12 q 333 -25 333 -18 q 239 -3 282 -25 q 210 13 228 -3 q 186 26 201 13 q 164 40 176 28 q 143 54 153 40 q 114 85 126 54 q 75 126 100 94 q 63 144 68 126 q 64 193 64 176 l 63 197 q 108 251 89 251 q 181 281 136 267 q 240 265 240 281 q 278 214 278 249 l 278 213 q 263 161 278 186 q 240 121 256 129 q 221 99 240 114 q 235 75 221 86 q 268 60 243 60 q 285 61 269 60 q 339 50 306 61 q 367 47 351 47 q 461 101 406 61 q 478 135 474 101 q 492 178 483 143 l 514 214 q 529 267 529 221 l 538 317 q 518 390 538 361 q 497 414 515 414 l 482 414 q 439 397 453 414 q 424 383 435 397 l 421 383 q 396 388 407 383 q 371 381 375 381 q 294 383 322 383 q 278 371 292 376 q 233 388 263 374 q 192 411 203 392 q 119 479 176 411 q 101 511 101 488 q 78 551 97 511 q 53 599 57 599 q 61 728 57 694 q 58 731 61 731 q 94 821 63 765 q 161 871 96 821 q 229 914 189 885 q 285 928 251 924 q 321 942 304 938 m 361 875 q 351 879 351 875 q 251 833 297 863 q 224 794 231 833 q 219 750 224 785 q 221 747 219 747 q 215 703 219 725 q 218 669 218 682 q 208 633 211 653 q 229 604 208 622 l 231 594 q 225 589 228 594 q 247 540 233 585 q 290 478 267 489 q 314 464 299 464 q 338 465 333 465 q 396 460 388 461 q 397 461 397 460 l 407 460 l 418 461 l 421 460 q 478 499 438 461 l 478 536 q 496 569 492 549 q 510 594 510 572 q 521 646 521 626 l 511 675 l 514 689 q 504 707 504 704 l 506 710 q 494 731 506 714 l 494 767 q 478 789 494 776 q 439 847 478 810 q 406 871 439 860 q 397 883 401 883 l 396 883 q 361 875 375 883 z "},"A":{"ha":1011,"x_min":4,"x_max":1006,"o":"m 542 981 q 579 914 579 940 l 579 913 q 578 904 578 908 q 613 815 613 839 q 625 789 617 815 q 635 757 631 789 l 656 710 q 660 685 660 689 q 658 676 658 682 q 693 607 665 676 q 701 592 693 601 l 700 574 q 722 519 718 551 q 731 499 726 519 l 729 486 q 747 457 729 481 q 765 392 757 440 q 799 308 786 379 q 824 261 813 267 l 824 254 q 822 253 824 253 q 840 203 829 225 q 857 165 846 194 q 875 125 875 128 q 935 79 875 106 q 947 81 946 81 q 972 76 963 76 l 993 76 q 997 72 997 76 q 996 56 996 61 q 1006 7 1001 36 q 971 -8 985 -6 q 915 4 960 -1 q 819 15 885 11 l 806 15 q 789 13 796 15 q 760 17 765 15 q 646 11 679 11 l 611 25 q 604 40 604 33 l 604 51 q 633 68 610 68 q 643 76 643 75 l 668 75 l 688 75 q 718 122 713 75 q 706 172 714 163 q 693 207 706 189 l 681 235 q 663 294 681 250 q 639 331 657 322 q 613 343 624 343 q 594 333 608 343 q 460 325 540 328 l 456 324 q 410 329 447 325 q 388 328 406 329 q 315 333 315 329 q 267 288 282 333 q 244 222 267 260 q 226 140 239 189 q 251 92 226 111 q 278 81 251 83 l 292 83 q 351 51 336 68 q 333 0 351 6 q 311 3 319 3 q 54 -10 169 -10 q 19 0 54 -1 q 7 17 7 14 q 4 64 4 56 l 21 75 q 29 72 25 72 q 89 85 39 81 q 131 131 89 89 q 143 165 131 136 q 150 193 150 186 l 150 206 q 172 222 150 207 l 169 236 l 169 238 q 186 278 186 272 q 194 311 186 286 l 194 313 q 193 319 193 317 q 214 338 214 336 l 211 351 q 251 453 229 429 l 251 472 q 267 510 258 481 q 265 532 265 524 l 315 643 l 315 671 q 340 714 315 675 q 372 774 369 771 l 372 797 l 389 838 q 392 846 389 846 l 389 850 l 389 853 q 408 904 401 882 l 438 943 q 489 968 447 943 q 542 981 517 981 m 404 681 l 404 672 l 406 660 q 381 588 385 626 q 375 563 376 588 l 375 546 q 351 501 361 536 l 308 432 l 308 410 l 317 408 q 350 413 326 408 q 393 400 360 404 q 472 404 453 404 q 535 401 490 404 q 579 414 579 404 l 586 410 l 588 410 q 611 428 607 428 l 611 439 q 588 469 592 451 q 561 536 572 492 q 553 553 558 536 q 536 607 547 553 q 522 626 522 615 q 524 629 522 629 q 494 692 522 650 q 490 743 490 724 q 464 781 469 778 l 456 781 q 425 722 444 769 q 410 688 418 722 q 404 681 407 688 z "},"B":{"ha":931,"x_min":53,"x_max":882,"o":"m 460 961 l 499 961 q 536 950 531 950 l 540 953 l 567 953 q 617 942 583 946 q 671 932 617 936 q 714 907 703 907 q 772 868 736 885 q 815 790 807 836 q 821 768 819 790 q 819 710 819 732 q 803 653 811 710 q 760 593 782 619 q 710 569 744 583 l 704 569 q 667 531 704 564 q 663 511 663 517 q 692 493 663 510 q 743 479 692 483 q 801 435 763 454 q 836 407 801 432 q 853 371 842 371 q 874 338 860 356 q 882 306 874 321 q 878 264 878 275 l 878 239 q 829 131 871 193 q 786 96 825 125 q 713 54 761 71 q 607 22 661 24 q 519 11 607 17 q 478 14 506 11 l 464 11 l 443 14 q 393 7 438 14 q 363 11 392 7 l 336 11 q 311 18 328 11 q 263 11 269 11 q 207 15 224 15 l 182 15 q 165 6 175 15 l 158 6 q 138 15 151 6 q 126 18 133 18 q 106 14 121 18 q 58 36 58 17 q 57 50 57 39 l 57 54 q 83 79 57 79 q 131 88 83 85 q 139 86 135 86 q 190 124 178 110 l 190 151 q 186 192 190 175 q 189 218 189 204 l 189 224 q 178 244 178 236 l 178 294 q 182 328 182 325 q 178 349 182 349 l 181 363 l 181 467 q 185 489 185 486 l 185 492 q 181 507 181 506 q 185 539 181 539 l 182 543 q 185 607 182 553 l 182 611 q 186 644 185 613 l 185 678 l 186 688 q 181 836 185 701 q 161 864 176 836 q 143 878 143 869 l 121 878 q 58 900 71 878 q 53 917 57 900 q 64 953 53 953 q 81 949 72 949 q 113 954 106 954 q 118 953 114 954 l 129 954 q 253 949 221 953 q 275 953 261 953 l 283 953 q 313 950 296 953 q 329 954 321 954 l 351 954 q 375 953 361 954 l 385 958 l 397 958 l 421 953 q 460 961 443 961 m 363 881 q 328 806 342 860 q 333 747 333 757 q 324 658 325 706 l 329 632 q 324 557 325 615 q 342 543 326 543 l 354 543 q 381 547 372 543 q 404 544 386 547 q 472 547 449 547 q 478 549 474 547 l 490 547 l 506 547 q 590 578 531 549 q 608 586 590 581 q 654 629 654 626 l 651 633 q 672 679 663 661 l 681 731 q 658 799 668 761 q 624 847 646 833 q 550 882 557 882 l 540 882 q 490 888 524 882 q 489 886 489 888 l 478 888 l 464 888 q 363 881 403 881 m 329 467 l 329 426 q 333 394 329 424 q 325 367 325 372 l 325 361 q 332 344 325 357 q 333 231 332 317 l 328 189 l 328 167 q 344 119 328 164 q 469 79 369 79 l 481 79 q 514 83 483 79 l 583 83 q 647 113 592 92 q 688 151 688 140 q 725 265 708 189 l 725 269 q 722 303 725 282 q 725 328 725 318 q 717 358 717 350 q 721 371 721 365 l 721 374 q 713 375 713 375 q 706 374 708 374 q 621 447 640 447 q 600 456 621 453 q 557 468 600 464 q 522 475 557 474 q 497 472 518 475 q 481 476 489 476 q 429 475 463 476 q 367 489 417 475 l 360 489 q 329 467 344 489 z "},"C":{"ha":1014,"x_min":90,"x_max":938,"o":"m 824 971 q 840 944 840 957 q 854 910 854 921 l 854 894 q 865 875 861 894 q 901 781 886 840 q 915 736 904 781 q 938 715 936 724 q 921 657 932 657 l 924 653 l 924 651 q 890 638 906 638 l 888 639 q 857 635 876 635 q 828 653 854 642 l 797 688 l 800 697 q 757 776 781 725 q 715 819 753 776 q 663 864 672 864 l 660 864 l 646 861 q 619 886 632 886 l 606 886 q 574 883 594 886 q 542 890 560 890 l 522 890 l 513 883 q 485 886 496 886 q 410 846 461 876 q 375 811 397 844 q 353 781 367 796 q 303 683 332 751 q 293 657 293 669 q 294 651 294 653 q 269 622 288 650 l 272 599 l 272 581 q 263 556 272 571 q 260 550 263 554 q 264 529 263 535 q 263 511 263 519 l 263 501 l 281 461 q 290 443 290 456 l 276 422 q 286 367 276 392 l 286 360 q 285 358 286 358 l 286 354 l 286 347 q 285 346 286 346 q 299 292 290 332 q 321 236 307 282 q 432 129 369 185 q 444 115 438 115 q 450 117 449 117 q 460 107 450 115 l 486 107 q 511 94 492 103 q 515 89 511 89 l 544 89 q 575 83 556 89 l 586 83 q 631 92 619 92 q 657 89 643 89 q 753 133 703 103 q 800 185 779 146 q 832 243 821 217 q 857 289 857 269 q 853 322 853 299 q 876 351 853 335 l 890 351 q 925 332 914 349 l 925 310 l 911 269 l 913 265 q 871 160 899 208 q 858 139 871 144 q 836 110 850 131 q 739 36 782 53 q 632 0 686 13 q 615 -6 632 -3 q 608 -4 608 -4 q 582 -12 582 -7 l 571 -10 l 531 -10 q 503 -4 504 -4 l 485 -4 l 463 1 l 444 0 q 407 14 422 0 q 339 36 381 32 q 290 61 333 36 q 263 83 281 61 q 206 150 219 125 q 171 192 171 186 q 113 342 113 301 q 99 372 113 358 l 99 376 q 107 408 107 403 l 107 413 q 90 479 99 442 l 90 526 q 104 589 90 557 q 114 631 104 610 q 117 682 117 674 q 174 771 139 696 q 250 849 207 817 q 276 875 254 849 q 339 924 299 875 q 385 935 350 924 l 397 935 q 419 950 397 939 q 426 957 419 953 q 432 954 428 957 q 533 968 454 964 q 549 967 538 968 q 590 968 572 968 q 686 936 632 968 l 690 932 l 711 935 l 721 935 q 824 971 794 971 z "},"D":{"ha":1057,"x_min":63,"x_max":1014,"o":"m 328 953 q 371 949 360 949 l 389 949 q 439 951 410 949 l 457 944 q 485 949 463 947 l 494 943 l 507 943 q 599 951 507 947 q 689 922 629 931 q 744 904 733 915 q 772 892 750 904 q 778 893 776 893 q 819 860 792 879 q 836 843 831 843 l 844 846 q 896 800 863 846 q 922 769 914 800 q 964 718 936 744 l 964 697 q 1000 592 1000 624 q 1006 575 1006 583 l 1006 547 q 1014 488 1006 519 q 1004 444 1011 465 q 1010 406 1008 426 q 997 369 1000 406 q 1000 356 1000 361 q 986 299 1000 349 q 918 178 972 249 q 803 68 814 68 l 797 68 q 772 74 778 74 l 765 74 q 721 22 746 50 l 689 22 q 628 6 656 6 l 590 6 q 574 1 588 6 l 535 1 q 461 -8 526 1 q 410 1 424 -8 q 344 -3 356 0 q 282 17 314 17 l 275 17 q 243 1 260 17 l 211 1 q 186 -4 192 -4 l 142 -4 q 113 0 135 -4 q 85 -4 110 0 q 76 6 76 4 l 76 13 q 97 50 81 50 q 151 58 108 53 q 168 56 163 56 q 203 89 190 56 q 218 131 218 111 l 218 135 l 215 144 l 218 144 l 215 149 l 215 188 q 210 211 215 194 q 215 240 215 232 q 206 343 210 265 l 206 344 q 207 368 206 354 q 206 376 206 371 l 211 401 q 206 461 210 449 q 214 478 210 478 q 211 513 211 501 l 211 517 q 215 533 211 526 q 214 588 214 568 l 214 601 q 206 647 214 611 q 207 678 207 665 l 207 685 q 214 710 214 704 q 206 733 214 711 l 206 740 q 215 788 206 756 q 218 799 215 794 q 165 864 218 846 q 133 883 165 867 l 88 883 l 67 881 q 63 888 63 886 l 63 926 q 100 951 63 938 q 203 949 110 951 q 207 939 207 942 q 253 944 214 939 q 269 943 261 944 q 328 953 318 953 m 449 893 l 444 893 q 410 900 417 900 q 368 879 410 888 q 363 875 363 879 l 340 860 q 338 821 338 832 q 340 815 340 817 l 338 815 l 340 811 l 340 803 q 338 794 340 797 q 340 786 340 790 q 338 775 340 779 q 344 732 340 744 q 340 703 340 713 q 344 676 344 685 l 344 613 l 346 600 l 344 596 q 346 592 344 592 l 344 567 l 344 532 q 350 504 350 511 q 346 440 350 489 l 347 428 q 342 406 344 406 q 346 385 344 385 l 344 374 l 344 351 q 342 322 344 335 l 347 260 l 347 258 q 344 240 347 253 q 346 213 344 231 q 344 178 344 185 q 351 115 347 131 l 351 101 q 408 51 396 51 q 468 58 450 54 l 469 58 q 522 51 482 58 l 531 51 q 554 58 535 51 l 583 58 l 646 78 l 660 86 q 667 93 660 89 l 693 93 q 776 154 721 106 q 850 304 794 164 l 854 322 q 850 356 850 346 l 850 401 l 861 467 l 861 471 q 850 496 850 483 l 850 564 q 849 597 850 576 q 850 613 850 600 q 832 664 832 647 q 833 690 833 681 q 818 719 826 692 q 776 794 782 789 q 722 847 761 801 q 663 875 676 847 l 651 876 l 638 876 q 608 888 632 883 l 604 885 l 600 885 q 563 900 593 890 l 554 900 q 514 901 536 900 q 497 897 497 897 q 478 901 482 900 q 449 893 457 893 z "},"E":{"ha":908,"x_min":39,"x_max":865,"o":"m 715 958 q 757 921 757 958 l 799 839 q 819 815 800 831 l 817 806 l 817 783 q 829 746 822 754 q 813 697 826 710 l 811 697 l 803 701 q 783 700 792 700 l 778 700 q 735 746 735 736 q 706 789 735 756 q 676 803 692 803 q 585 860 628 843 q 538 869 538 863 l 519 868 q 461 874 492 868 q 367 857 367 869 q 322 824 322 842 q 317 788 322 815 q 321 708 317 769 q 314 692 314 707 l 314 665 q 318 640 314 654 q 313 624 313 628 q 314 594 313 621 l 304 544 q 325 524 304 539 q 379 526 364 526 q 397 522 392 522 l 410 522 q 476 524 432 522 q 492 535 481 531 q 511 531 508 531 q 567 624 547 563 q 613 653 578 653 q 633 636 619 653 l 633 619 q 629 593 633 611 q 633 553 633 568 l 633 536 q 638 519 633 535 l 638 496 q 643 472 638 486 q 639 443 639 457 l 639 422 q 638 413 639 415 q 639 404 638 411 q 625 317 639 332 l 610 319 l 596 319 q 557 363 565 356 l 557 378 l 558 392 q 469 456 511 435 q 435 451 453 451 l 431 451 q 418 458 422 458 q 388 456 406 458 q 350 458 363 458 q 306 438 324 458 q 313 289 310 438 q 310 281 313 288 q 314 189 314 256 l 314 167 q 321 129 314 149 q 318 121 318 125 l 318 115 l 367 71 l 385 71 q 393 74 389 71 q 422 67 413 67 q 426 69 426 67 l 447 67 l 490 67 q 546 69 508 67 q 588 82 546 74 l 614 82 q 667 108 621 94 q 710 142 694 122 q 764 185 725 147 q 824 253 807 240 l 838 253 l 850 256 q 865 235 865 249 l 863 231 q 865 222 865 226 l 865 221 q 853 183 853 211 q 838 143 838 151 l 838 142 l 840 138 q 828 117 831 138 q 786 38 810 79 q 768 11 786 11 q 739 15 763 11 q 722 11 732 15 q 672 14 693 14 l 656 14 q 606 7 629 14 q 583 10 592 10 l 579 10 q 538 6 558 10 q 451 11 526 10 q 406 10 415 10 q 356 14 364 14 q 338 10 343 10 l 294 10 q 253 6 274 10 q 211 10 218 10 l 197 7 q 178 14 185 8 q 139 15 161 14 q 68 10 68 13 q 50 32 50 19 l 50 49 q 104 75 50 69 q 140 74 124 74 l 143 74 q 181 124 160 74 q 182 125 182 124 l 182 226 q 178 243 182 228 q 182 276 182 267 l 182 286 q 169 349 169 342 l 169 353 q 181 454 176 353 q 174 564 178 564 q 176 597 176 585 l 176 611 q 169 671 176 619 q 178 721 169 679 q 172 750 172 742 q 174 771 174 768 q 147 843 174 813 q 114 882 140 863 l 111 882 q 56 872 89 872 l 39 892 l 39 904 q 56 933 39 924 q 64 932 61 933 q 110 946 106 946 q 143 938 143 943 q 178 940 167 940 l 224 940 q 292 954 236 940 q 354 949 343 953 q 399 950 363 949 q 451 949 439 949 q 488 954 481 954 l 507 954 q 529 949 514 954 q 567 953 565 950 q 589 950 581 950 l 614 950 q 633 953 622 950 l 638 950 q 715 958 692 958 z "},"F":{"ha":832,"x_min":21,"x_max":813,"o":"m 713 976 q 758 943 751 976 q 769 926 765 935 q 768 919 768 922 q 783 894 769 919 q 799 889 799 894 q 788 881 789 885 l 788 865 q 811 839 788 853 q 808 797 808 811 q 813 767 808 796 l 813 750 q 788 715 811 733 l 786 715 q 728 761 750 715 q 646 838 674 838 q 621 861 646 846 l 601 861 q 499 893 582 882 l 486 893 q 424 894 461 893 q 385 886 389 886 q 350 889 364 889 q 299 772 299 833 q 303 753 303 757 q 299 682 303 738 q 304 660 304 668 l 304 640 q 303 635 304 635 l 304 624 l 304 607 q 303 556 304 590 q 333 546 331 546 l 342 546 q 368 543 358 546 q 440 547 389 546 q 456 546 449 546 q 554 610 529 581 l 553 631 q 565 664 563 664 q 593 683 589 683 q 626 657 610 683 q 635 611 629 624 q 633 572 635 594 q 647 392 633 451 l 647 388 q 633 339 635 361 q 586 332 628 335 q 550 390 550 367 q 538 428 544 390 q 508 457 531 428 l 504 457 q 457 474 499 457 q 335 471 371 471 q 310 438 310 471 l 310 376 q 314 326 314 329 l 314 297 q 310 258 310 263 l 310 210 q 326 132 310 153 l 326 114 l 364 83 l 368 83 q 389 90 381 83 l 449 90 q 465 56 454 90 l 465 39 q 435 8 465 36 l 414 8 q 389 14 407 8 q 274 8 296 8 l 254 8 l 219 18 q 139 8 183 17 l 124 10 q 108 8 119 10 q 68 10 88 10 q 39 47 46 10 q 54 76 47 58 l 63 83 l 68 83 q 108 79 72 83 l 110 79 q 143 94 118 86 q 176 157 156 108 q 182 201 182 157 q 172 243 172 228 l 182 310 q 165 324 179 310 l 168 339 l 168 343 l 157 364 l 160 385 l 160 404 q 157 506 160 447 q 160 522 160 518 q 156 547 156 542 l 157 568 l 156 597 q 160 639 160 628 q 151 664 151 653 l 151 688 q 149 696 151 693 q 156 713 156 707 l 156 717 q 151 733 156 719 l 161 800 l 161 801 q 147 850 158 832 q 128 872 142 872 q 92 889 94 889 q 72 885 75 885 q 21 906 40 893 l 22 919 l 22 935 q 60 951 22 947 q 128 960 60 957 l 133 960 q 150 947 142 947 l 163 947 q 171 957 167 949 l 196 956 l 204 956 q 221 961 211 956 q 267 951 261 951 q 292 957 282 953 l 315 956 q 339 960 335 960 q 351 956 346 956 l 364 956 l 386 964 q 394 956 394 961 l 399 956 q 475 961 444 961 l 486 961 q 501 960 494 961 q 518 961 510 961 q 572 957 543 961 q 713 976 599 964 z "},"G":{"ha":1047,"x_min":72,"x_max":985,"o":"m 504 969 q 511 967 511 969 l 532 969 l 558 969 q 631 954 574 969 q 731 931 693 931 q 761 947 731 936 q 775 954 764 954 l 794 954 q 828 915 828 933 q 838 876 828 901 q 836 842 838 865 q 864 808 839 832 q 863 792 863 797 q 888 708 888 746 q 868 675 888 675 q 832 669 868 672 q 796 711 829 669 q 778 740 778 724 l 778 754 q 740 793 769 754 q 669 857 671 853 q 588 893 640 868 q 576 894 581 893 q 507 890 535 890 l 494 893 q 432 878 432 893 q 389 846 421 868 q 371 835 389 835 q 296 717 354 832 q 269 660 283 679 q 261 653 261 656 l 261 647 q 271 597 261 621 q 249 563 263 597 l 249 481 l 242 381 q 253 303 250 340 q 263 283 257 303 q 274 254 269 283 q 308 188 292 188 q 321 165 321 171 q 331 144 324 165 q 368 117 340 135 q 406 90 378 114 q 457 74 419 79 q 488 65 457 72 q 519 57 488 60 l 524 57 q 557 68 526 57 l 575 68 l 588 57 q 601 68 592 57 q 674 85 622 68 q 701 101 692 85 q 753 192 724 118 q 761 206 761 199 q 749 268 761 246 q 753 307 749 281 q 715 364 753 331 q 660 374 683 374 l 656 374 l 643 372 q 608 396 628 372 l 608 413 q 626 432 611 432 l 631 429 q 643 438 633 429 l 651 438 q 676 432 671 432 l 681 432 q 697 436 689 432 q 719 433 711 433 q 744 438 731 433 q 753 424 750 424 q 794 436 778 436 q 828 432 818 432 l 832 432 q 883 440 847 439 q 938 450 917 442 l 947 450 q 985 432 972 450 q 968 385 975 385 q 960 386 964 385 q 910 372 918 372 q 892 360 899 372 q 871 344 879 344 l 871 332 q 867 299 867 303 l 867 238 q 864 200 867 219 q 867 175 867 193 l 863 161 q 868 144 863 157 q 858 107 868 113 l 860 93 l 860 86 q 838 56 860 68 l 807 56 l 782 53 l 782 56 q 715 28 722 42 l 711 28 q 703 31 707 28 l 639 10 l 592 0 q 511 -3 574 0 q 440 6 451 6 q 426 1 436 6 q 375 24 415 1 q 325 39 333 28 q 289 57 319 39 l 263 68 q 217 99 232 99 q 169 157 171 140 q 132 204 168 176 q 115 231 115 224 q 96 283 115 251 l 96 301 q 75 374 85 326 q 76 408 76 399 q 72 436 72 428 q 79 463 79 458 l 76 481 q 85 501 85 499 q 83 539 85 510 q 111 635 100 625 q 124 664 124 656 q 153 742 124 671 q 174 767 153 750 q 232 831 174 775 q 261 872 246 846 l 293 899 q 347 926 300 899 q 478 963 417 963 q 504 969 499 969 z "},"H":{"ha":1117,"x_min":51,"x_max":1078,"o":"m 1058 957 q 1078 901 1078 940 q 1040 879 1051 879 q 1001 881 1018 881 q 993 872 1001 878 q 965 881 982 876 q 935 828 956 849 q 924 808 935 819 l 924 788 q 931 767 931 769 l 931 693 q 932 661 931 679 q 928 621 931 651 q 931 604 931 608 q 928 601 931 601 l 931 588 l 931 560 l 922 553 l 922 529 q 931 511 931 518 l 931 407 q 932 385 931 399 q 924 368 929 375 l 924 364 q 926 342 924 356 q 924 339 926 339 q 926 331 924 338 q 931 228 926 310 q 928 219 931 226 q 931 208 931 215 l 931 203 q 928 200 931 200 q 931 199 928 199 l 928 188 l 928 169 q 926 140 928 158 q 972 76 940 76 q 1053 56 972 71 q 1063 25 1063 43 q 1025 1 1063 11 q 978 6 1010 1 q 969 4 975 4 q 961 13 969 7 l 904 13 q 864 8 868 8 l 850 8 q 807 18 822 18 q 779 -3 790 -3 l 778 -3 q 749 10 765 10 q 718 4 725 4 q 674 17 718 14 q 665 31 665 22 q 668 39 665 36 q 665 47 665 43 q 681 60 667 47 q 694 56 694 60 q 697 58 697 56 l 707 56 q 729 67 724 67 l 749 64 l 783 90 q 804 126 804 119 q 803 165 804 146 q 804 199 803 168 q 803 253 803 238 q 807 271 804 267 q 803 285 803 282 q 804 314 803 297 q 803 376 803 356 q 807 435 807 419 q 769 461 807 461 q 719 453 739 453 l 711 456 q 689 451 708 453 q 563 460 618 460 l 558 457 l 533 464 q 410 457 475 457 q 374 461 382 461 l 343 461 q 321 432 321 443 q 325 407 325 418 l 325 329 q 333 207 329 235 q 331 190 331 196 q 351 106 335 142 q 382 75 364 88 l 386 75 q 467 54 467 69 l 469 50 l 469 38 q 444 4 469 14 q 376 10 418 4 q 333 8 364 10 q 276 13 297 13 l 263 10 q 244 13 254 13 q 221 8 224 8 l 175 8 q 174 10 174 8 l 169 8 l 107 8 q 85 4 106 8 l 74 4 q 51 31 57 4 l 51 54 q 86 75 71 75 l 136 75 q 200 107 196 96 l 200 132 q 199 161 200 143 q 203 188 203 171 l 203 192 q 190 208 192 201 l 200 242 l 200 246 l 194 254 l 194 265 q 200 283 196 282 l 199 308 l 199 363 l 194 386 l 200 428 q 190 474 200 443 l 190 486 q 199 528 199 518 l 199 568 q 194 585 194 583 l 194 597 q 186 681 194 631 q 199 832 199 772 q 147 885 199 836 q 60 910 60 892 l 60 918 q 81 953 67 953 q 82 956 81 956 q 110 949 110 951 l 135 951 l 188 951 q 211 953 197 951 q 325 944 224 950 q 356 933 336 933 q 368 949 364 949 l 374 949 q 406 944 404 944 q 432 949 424 949 l 454 949 q 469 914 467 949 l 469 910 q 435 883 469 892 l 403 888 q 364 876 374 876 q 335 807 343 856 q 333 790 335 792 l 335 778 l 335 750 q 329 715 335 742 l 329 714 q 333 674 329 690 q 318 650 331 660 l 318 647 l 326 593 q 325 563 326 583 l 326 550 l 325 550 q 381 517 338 517 l 389 517 q 422 521 419 521 l 424 521 q 458 519 454 521 q 507 521 486 521 l 604 521 q 606 519 606 521 l 610 521 q 668 511 646 521 l 669 511 q 753 521 690 521 q 796 519 772 519 q 808 553 808 538 l 808 560 q 807 601 808 579 q 811 638 811 618 l 807 674 q 815 694 815 689 l 815 699 q 804 743 804 733 q 811 767 811 763 l 811 794 q 771 867 792 867 q 740 885 771 869 q 703 883 732 885 q 669 904 703 886 q 661 926 667 910 l 697 943 l 706 943 q 746 939 725 943 q 774 940 764 940 q 796 939 778 940 q 896 947 813 944 q 918 944 903 944 q 949 951 928 944 q 972 949 963 949 l 976 949 q 1001 956 981 949 l 1013 956 q 1058 957 1028 956 z "},"I":{"ha":501,"x_min":29,"x_max":474,"o":"m 54 947 l 79 947 q 97 943 85 947 q 129 944 124 944 q 158 940 146 940 q 253 939 196 940 q 283 943 279 943 q 324 940 313 940 q 368 947 326 944 q 385 944 374 947 q 435 947 411 947 l 447 947 q 474 931 464 947 l 474 914 q 456 871 474 888 l 433 871 q 406 879 411 879 l 375 879 q 353 881 367 879 q 324 846 349 881 q 313 842 317 842 l 317 782 q 315 744 315 763 l 315 669 q 319 622 315 658 q 315 608 319 608 q 317 576 317 588 l 317 544 q 304 494 317 526 q 317 453 315 476 q 315 444 317 451 q 317 389 315 426 q 315 354 315 364 q 319 325 319 331 q 311 289 313 289 l 317 279 l 317 269 q 313 246 317 267 l 313 221 q 321 164 313 208 q 338 94 324 94 q 442 67 368 67 l 451 67 l 474 46 q 442 -3 474 31 l 426 0 l 406 0 q 361 -4 390 0 q 288 0 294 0 q 256 -7 267 -3 l 206 4 q 197 1 200 4 q 117 8 129 4 q 69 6 89 6 l 63 6 q 33 39 33 6 l 33 47 q 63 60 50 60 l 69 60 q 78 58 74 60 l 133 68 q 168 88 160 68 q 178 106 172 88 q 186 151 186 106 q 190 186 188 186 q 189 188 190 188 q 190 194 189 190 l 189 204 l 190 229 l 189 254 q 194 267 194 257 l 194 275 q 182 304 194 285 l 185 318 l 185 333 q 186 363 185 349 q 181 415 186 368 q 185 465 182 465 q 182 479 182 474 q 185 517 182 497 q 182 544 182 531 q 186 557 186 550 l 186 571 q 176 592 176 582 l 185 647 l 182 681 q 189 715 185 697 q 181 753 189 729 l 181 779 q 193 821 193 810 q 164 860 186 821 q 135 881 140 881 q 104 879 122 881 q 29 908 29 879 q 49 940 29 932 q 54 947 49 944 z "},"J":{"ha":606,"x_min":-8,"x_max":551,"o":"m 250 956 q 288 938 250 953 q 336 947 336 944 q 353 956 346 956 l 357 956 q 378 943 363 949 l 389 944 l 411 944 q 433 939 414 944 q 486 951 453 947 q 508 949 500 949 l 522 949 l 535 951 q 551 935 551 949 l 551 910 q 504 889 543 889 q 488 883 504 885 l 475 885 l 471 885 q 429 838 440 885 q 417 804 417 808 l 417 771 q 408 754 417 754 l 408 731 q 415 714 408 721 q 413 706 415 713 q 411 597 413 692 q 413 592 413 593 q 404 544 404 592 q 407 528 404 542 l 404 528 l 407 524 q 408 492 407 501 q 400 432 407 447 l 400 424 q 407 399 400 418 q 404 326 404 342 q 407 288 404 307 q 404 233 404 268 l 404 208 q 396 181 404 203 l 396 169 q 404 143 396 163 q 396 97 404 119 l 396 76 q 381 18 385 42 q 364 -22 375 15 l 332 -67 q 264 -119 300 -100 q 246 -140 249 -140 l 221 -140 q 190 -157 211 -150 q 182 -165 190 -165 q 150 -161 161 -161 q 85 -169 146 -165 l 72 -169 q 35 -149 65 -160 q -8 -107 10 -128 l -7 -87 l -7 -43 q -3 -21 -7 -40 l -3 -7 l 36 18 l 57 17 q 76 18 68 18 q 119 -4 83 6 q 169 -75 147 -31 q 171 -76 169 -76 l 182 -76 q 200 -79 189 -76 q 247 -37 225 -65 q 272 38 272 10 q 268 68 272 39 q 271 76 268 72 l 268 81 q 272 111 272 100 q 271 147 271 136 q 281 199 276 158 q 276 233 279 200 q 281 253 281 249 q 275 300 281 265 q 276 342 275 314 q 275 368 276 343 q 279 432 279 407 l 281 432 q 279 435 281 435 q 293 557 281 557 q 276 610 293 568 l 276 614 q 289 638 276 621 q 288 686 288 667 q 281 710 281 703 l 281 718 q 293 754 293 746 q 285 807 285 788 l 285 828 q 288 836 285 832 q 285 843 285 839 l 288 864 q 267 879 276 879 l 254 879 l 239 876 l 239 879 l 235 876 l 226 876 q 200 896 218 876 q 167 881 181 896 l 163 881 q 138 914 138 899 l 138 933 q 183 951 138 942 l 207 951 q 250 956 217 951 z "},"K":{"ha":954,"x_min":-3,"x_max":949,"o":"m 881 953 q 900 918 900 936 q 843 893 885 893 l 835 893 q 763 851 822 881 q 728 828 747 844 q 639 749 689 813 q 519 633 601 722 q 483 596 483 607 l 483 588 q 513 536 493 578 q 538 499 517 536 q 568 456 568 469 q 601 418 576 450 q 639 374 629 382 q 661 338 661 354 q 672 318 665 338 q 750 221 725 271 q 807 157 750 215 q 860 101 807 143 q 940 68 908 75 q 949 63 940 67 q 932 26 949 38 l 932 25 q 875 31 889 31 l 819 31 q 767 35 811 31 q 742 29 749 29 l 714 29 q 657 25 697 29 q 631 29 636 29 q 596 25 629 29 q 575 33 596 29 l 572 43 l 572 63 q 604 83 581 74 l 618 81 l 625 81 q 672 110 656 81 l 674 110 q 657 151 668 151 q 629 199 643 167 q 554 301 603 219 q 507 360 544 329 q 474 401 507 368 q 436 456 454 435 q 393 500 433 465 l 376 500 q 331 461 361 482 q 249 372 331 456 l 249 360 q 260 339 249 354 q 264 322 264 325 l 264 310 q 263 283 264 293 q 272 190 263 267 q 271 151 271 171 l 271 149 q 285 111 271 125 l 285 99 q 317 81 306 90 q 326 79 319 79 l 385 79 q 403 54 403 65 l 403 38 q 353 21 403 24 q 342 26 344 26 q 263 17 314 21 l 260 17 q 246 22 253 22 l 225 22 q 207 13 217 22 q 163 18 171 18 q 86 13 115 17 l 58 14 q 38 8 47 8 l 6 39 q 8 56 6 42 l 6 68 l 18 79 l 33 79 q 101 90 61 79 q 122 110 122 90 q 143 140 139 140 q 139 164 139 149 l 139 165 l 140 178 q 136 192 136 189 q 139 203 136 199 q 136 236 136 224 l 136 276 q 139 300 136 286 q 135 326 138 304 q 136 378 136 357 l 136 397 q 140 428 140 426 q 132 494 136 443 q 143 529 138 504 l 143 540 q 136 554 136 547 l 136 572 q 139 672 136 613 l 132 694 l 132 722 q 136 757 133 757 l 135 761 l 135 767 q 110 850 132 850 q 81 879 81 868 q 51 875 65 875 q 35 883 44 875 l 6 883 q -3 897 3 883 q 35 947 -3 931 q 51 939 46 943 l 63 940 l 93 940 q 132 938 97 940 l 139 938 q 213 935 175 938 l 249 939 q 347 933 261 939 l 376 933 q 393 913 378 933 l 393 906 q 378 893 388 897 q 350 896 361 896 q 289 860 335 876 q 264 833 289 858 q 254 736 260 772 l 254 731 q 260 694 254 722 l 260 656 q 250 546 253 622 l 257 532 q 250 511 250 514 q 258 490 258 494 q 242 471 258 471 l 240 467 l 240 457 q 254 440 251 440 q 301 492 258 440 q 436 610 313 492 q 492 681 453 638 q 564 749 550 729 q 601 792 585 758 l 635 821 l 635 846 q 568 896 635 878 l 564 900 l 560 897 l 556 897 l 536 918 l 536 925 q 554 940 543 938 q 588 939 575 939 l 589 939 q 625 949 618 949 q 656 938 656 946 l 678 938 q 699 944 686 944 l 726 944 q 757 943 739 944 l 779 947 q 803 939 797 939 q 881 953 881 946 z "},"L":{"ha":903,"x_min":46,"x_max":865,"o":"m 439 978 q 471 958 449 969 q 481 949 471 954 q 439 903 481 917 l 432 894 l 410 897 l 382 897 q 356 883 376 892 q 328 844 328 849 q 322 825 322 836 q 333 761 322 786 q 329 726 333 758 l 329 719 q 332 711 329 715 q 325 672 325 683 l 325 589 q 333 535 325 563 q 332 467 332 494 q 333 397 332 433 q 332 371 332 386 q 336 340 336 350 q 332 324 336 333 q 333 278 333 294 l 333 267 q 325 175 333 196 q 360 107 358 107 q 417 92 360 96 q 419 90 417 90 q 569 103 569 90 q 738 186 663 138 q 792 253 771 253 q 806 279 794 253 q 835 294 824 294 l 849 294 l 865 278 q 856 249 864 257 l 856 211 l 838 188 l 838 164 q 811 94 838 151 q 769 26 781 28 q 753 31 768 26 l 729 31 q 718 22 728 31 l 715 22 q 653 29 704 22 q 611 19 640 29 l 608 19 l 578 29 q 551 24 568 24 q 513 26 543 24 l 501 24 q 478 26 486 26 q 379 15 435 26 q 363 19 367 19 l 358 18 l 347 19 q 240 11 324 15 l 199 11 q 119 14 168 11 q 88 7 108 8 q 76 8 83 8 q 69 7 72 7 q 58 54 61 21 q 83 79 67 79 l 103 79 l 114 85 q 126 81 121 81 l 161 81 q 192 96 164 85 q 201 146 197 104 l 201 183 q 192 263 201 204 q 203 318 192 288 q 201 369 201 353 q 190 382 199 369 l 190 386 q 206 419 206 399 q 192 439 201 432 l 194 454 l 194 501 q 190 535 194 514 l 192 535 q 190 536 192 536 l 192 558 l 192 569 q 186 596 192 579 l 190 624 q 188 650 188 639 q 194 672 188 653 q 190 703 190 689 l 190 726 q 196 754 190 732 q 190 815 190 785 q 192 840 190 825 q 138 892 192 853 l 138 894 l 74 894 q 46 928 53 894 q 64 953 46 947 q 76 974 72 964 q 165 968 118 968 l 188 968 q 222 964 213 968 q 236 967 224 964 q 272 964 261 964 q 301 968 292 968 l 332 968 q 378 967 349 968 q 439 978 392 971 z "},"M":{"ha":1304,"x_min":54,"x_max":1257,"o":"m 1211 982 l 1214 982 q 1236 932 1236 982 q 1238 924 1236 931 q 1201 906 1225 910 q 1188 900 1199 900 l 1136 900 q 1097 857 1099 867 q 1100 831 1100 842 q 1096 811 1096 817 l 1096 753 q 1104 740 1104 744 q 1111 635 1104 707 q 1096 557 1111 568 l 1096 542 q 1104 464 1104 519 l 1104 435 l 1096 415 l 1093 411 l 1104 392 q 1101 374 1104 386 q 1108 257 1104 278 q 1097 157 1101 242 q 1132 96 1119 96 q 1199 83 1169 96 q 1240 81 1219 83 l 1253 83 q 1257 44 1257 72 l 1257 42 q 1207 10 1249 10 q 1190 6 1194 6 q 1117 18 1136 18 q 1093 21 1106 18 q 1035 17 1072 17 l 1025 17 q 994 32 1019 17 q 979 33 982 32 q 914 14 956 33 l 885 13 l 851 21 l 842 18 q 835 32 836 32 q 838 38 835 33 q 835 71 835 60 q 900 85 851 85 q 917 81 913 81 q 979 128 946 81 l 979 150 q 968 267 974 243 l 968 272 q 975 286 975 281 q 972 314 975 300 q 975 369 975 338 l 975 382 l 967 393 l 967 406 q 972 424 967 410 q 967 460 972 431 q 971 506 967 474 l 968 517 l 975 526 q 971 579 971 574 q 975 596 975 592 q 972 613 975 601 q 975 643 975 626 q 968 661 975 650 l 972 768 q 963 799 963 796 q 943 775 950 796 q 936 747 936 775 q 938 729 936 744 q 893 651 915 700 q 889 647 889 651 l 889 619 q 869 579 882 614 q 831 478 854 557 q 811 447 831 471 q 808 408 808 426 q 776 346 803 407 l 772 346 q 751 271 772 313 q 718 190 732 239 q 683 96 683 125 q 667 51 676 96 q 632 1 632 3 l 628 -1 q 588 21 599 -1 q 565 72 578 21 q 544 143 550 135 q 531 161 542 154 l 531 163 l 533 174 q 494 260 504 219 q 488 275 490 260 l 488 296 q 453 342 453 325 q 406 440 406 433 q 397 478 406 468 q 382 521 386 489 q 319 665 353 582 q 288 736 297 697 q 276 744 278 740 l 276 764 q 261 781 264 781 l 253 781 q 244 771 244 776 q 249 740 249 747 l 249 728 q 256 717 256 721 q 253 529 256 660 q 256 456 256 481 q 261 411 261 443 q 260 393 261 406 q 261 378 261 385 q 256 357 256 367 l 256 342 q 267 296 256 338 q 264 233 264 258 l 264 197 q 261 178 264 189 q 292 115 289 115 q 386 72 328 72 q 410 53 410 54 q 386 8 410 29 q 363 10 368 10 q 338 3 353 10 q 171 10 249 6 q 131 -6 171 0 q 93 -17 111 -17 q 68 -1 93 -8 q 57 40 57 7 q 85 75 75 74 l 96 72 q 117 83 96 76 l 122 89 l 136 88 l 151 88 q 201 176 183 114 l 193 243 l 193 251 q 201 283 193 257 q 190 311 190 306 q 193 365 193 357 q 189 378 193 369 q 194 475 192 475 q 186 507 190 499 q 189 569 189 546 l 189 600 q 186 646 189 617 q 193 706 193 661 q 186 729 186 728 l 186 753 q 193 799 186 767 l 190 811 l 190 826 q 174 850 178 850 q 147 869 174 853 l 117 869 q 54 893 54 882 l 54 901 q 76 947 61 947 q 92 949 79 949 l 107 949 q 124 953 122 953 l 128 953 q 163 949 160 949 l 175 949 q 199 953 196 953 q 221 949 221 953 l 324 953 q 390 829 365 917 l 408 783 l 406 761 q 436 718 436 743 q 472 642 440 715 q 492 599 481 633 q 506 588 506 590 q 501 569 506 585 l 501 560 q 557 439 546 490 q 583 401 583 417 q 596 353 583 392 q 619 290 607 290 q 647 253 638 269 q 671 251 663 251 l 674 251 q 675 256 674 256 l 674 267 l 674 268 q 689 300 681 275 q 733 411 733 404 q 764 483 733 419 q 803 574 775 524 q 858 713 811 632 q 874 742 861 724 q 885 781 874 749 q 900 833 885 810 q 932 915 924 876 q 940 939 936 915 q 979 972 976 972 q 1007 978 986 972 l 1014 978 q 1038 968 1022 968 q 1104 967 1064 968 l 1139 971 q 1183 968 1163 968 l 1211 982 z "},"N":{"ha":1092,"x_min":42,"x_max":1061,"o":"m 1019 961 q 1057 939 1043 956 q 1061 929 1057 936 q 1058 924 1058 925 l 1061 915 q 1039 879 1047 881 l 1024 879 q 944 846 992 876 l 922 846 q 921 839 922 844 q 928 821 928 826 l 928 799 q 921 779 921 790 l 921 761 q 922 753 921 757 l 911 701 q 924 663 921 682 q 922 640 922 649 l 922 629 q 921 626 922 626 l 922 624 q 921 593 921 603 q 931 568 921 582 q 932 532 932 549 l 932 508 q 926 494 926 501 l 926 443 q 931 414 926 414 l 928 390 l 928 343 q 931 324 928 333 q 928 306 928 315 l 928 286 q 931 278 928 281 l 928 274 q 931 240 928 264 q 928 175 928 193 q 936 142 928 167 q 928 118 928 124 q 944 43 938 94 q 924 0 932 0 q 897 6 897 3 q 890 3 893 3 q 876 17 886 3 q 857 29 863 17 q 810 104 822 104 q 782 132 810 108 q 757 189 757 174 q 638 317 728 218 q 597 375 626 317 q 538 460 571 408 q 433 589 444 563 q 396 629 408 610 l 349 689 q 299 757 338 713 l 288 760 q 271 742 271 754 l 271 726 q 274 718 271 721 l 271 714 q 276 633 274 642 q 275 601 275 618 q 279 583 279 589 q 275 569 279 569 l 276 565 l 276 554 q 281 508 281 511 q 276 489 276 493 q 283 451 283 463 q 279 426 279 428 l 281 394 q 276 335 276 344 q 281 314 281 321 q 276 279 276 292 q 290 225 282 271 l 290 222 q 289 203 290 213 l 290 190 q 288 165 288 174 l 288 157 q 336 89 288 140 q 363 75 343 89 l 375 76 l 396 76 q 431 54 408 67 q 439 40 439 49 l 439 35 q 424 21 432 25 l 413 24 q 389 11 413 17 q 358 14 369 14 q 340 7 343 7 q 294 15 325 7 q 260 10 274 10 l 257 10 q 228 14 228 10 q 200 10 224 13 l 200 11 q 194 10 196 10 q 158 11 178 10 l 121 7 l 113 10 q 88 7 100 7 l 78 7 q 63 25 75 7 l 63 58 q 106 81 72 81 q 164 96 117 81 q 190 128 181 114 l 188 138 l 188 156 l 206 175 l 206 218 l 213 269 q 206 321 208 290 q 208 406 208 367 q 200 424 200 418 l 200 447 q 204 469 200 450 l 204 493 q 208 522 208 521 q 201 556 208 528 l 201 560 q 206 576 201 563 q 208 619 206 593 l 201 668 l 201 676 q 208 694 208 683 l 208 715 q 210 724 208 721 q 200 751 206 742 l 206 814 q 144 869 206 838 q 74 888 86 876 q 49 910 69 888 q 42 921 42 911 l 42 924 q 82 944 44 928 q 89 951 82 947 q 138 938 96 951 l 171 944 l 204 944 q 222 947 211 944 q 238 943 229 943 l 246 943 q 251 947 246 943 q 285 944 278 944 q 307 947 289 944 q 356 914 331 947 q 396 858 369 904 q 425 839 414 839 q 447 785 425 818 q 481 742 457 768 q 515 689 500 703 l 556 654 q 613 569 576 608 q 689 476 681 483 q 697 464 697 474 l 697 447 q 754 389 750 389 q 771 358 768 375 q 838 276 800 332 q 846 260 843 276 l 867 260 q 874 265 869 260 l 874 268 q 865 324 865 303 q 871 340 871 340 q 863 422 871 374 l 863 465 q 856 490 863 475 q 865 550 856 525 l 865 578 q 869 633 865 610 l 867 647 l 869 678 q 853 733 860 701 q 847 746 847 736 q 851 774 851 767 l 851 775 q 842 844 846 844 q 758 882 797 882 q 715 910 721 897 q 733 947 715 936 q 740 944 738 947 q 763 951 754 951 l 822 951 q 824 949 824 951 l 828 951 l 843 951 q 846 949 846 951 l 850 951 l 853 951 q 875 943 858 951 l 899 944 q 921 943 903 944 l 935 951 l 938 951 q 988 958 957 951 l 1001 957 q 1019 961 1017 961 z "},"O":{"ha":1083,"x_min":64,"x_max":1011,"o":"m 526 985 l 528 985 q 551 979 535 985 l 593 982 q 656 965 610 982 l 688 953 q 779 911 726 953 q 811 894 799 911 q 849 863 814 894 q 906 806 858 863 q 933 769 906 803 q 964 721 953 735 q 992 644 964 700 q 1006 579 1000 635 q 1011 556 1010 579 q 1010 550 1010 551 q 1011 547 1010 547 l 1010 538 l 1010 504 q 1006 493 1010 499 l 1010 446 q 1000 376 1000 415 q 978 335 993 374 l 978 300 q 949 231 950 247 q 883 158 931 196 q 843 113 881 158 l 796 75 q 736 32 767 64 q 708 17 721 32 l 694 18 l 679 18 q 654 3 664 17 q 632 4 636 4 q 604 -6 617 4 l 553 -6 q 494 0 531 -6 l 490 0 q 482 -1 486 0 q 444 11 461 -1 q 408 22 426 22 q 336 44 385 38 q 274 75 336 47 q 218 129 274 79 q 136 211 193 151 q 118 250 135 225 q 89 304 97 276 q 75 367 82 353 l 67 390 l 67 404 q 64 442 67 418 q 67 461 67 456 q 64 513 64 493 l 64 532 q 74 574 71 553 q 81 594 81 581 l 81 613 q 118 711 88 654 q 124 719 124 711 q 122 735 124 721 q 161 786 139 743 q 296 906 278 906 q 381 956 367 950 q 443 967 431 956 q 457 976 444 972 q 475 975 468 975 q 526 985 489 975 m 279 790 l 279 769 q 268 764 279 767 l 268 763 l 269 753 q 250 733 263 753 l 250 731 q 260 711 257 722 q 258 679 258 690 l 258 651 q 246 625 246 626 q 244 618 244 621 q 250 599 250 608 q 236 571 236 588 l 236 569 q 235 517 236 543 q 249 453 242 457 l 249 418 l 246 406 q 260 376 253 382 q 256 325 256 351 q 269 300 257 313 l 269 292 l 268 278 q 289 236 271 275 q 300 217 294 236 q 319 179 303 217 q 331 160 324 179 q 372 115 364 132 q 435 82 376 115 q 515 54 507 54 l 533 56 l 561 51 q 607 58 597 58 l 621 58 q 681 93 658 69 l 701 93 q 725 107 707 101 q 744 113 725 111 q 793 183 760 133 l 792 196 q 819 249 819 211 q 839 339 839 288 l 839 342 q 863 367 839 343 q 858 385 858 379 l 858 465 q 867 481 858 472 q 850 589 850 572 q 836 664 850 644 q 829 706 836 679 q 831 722 831 715 l 831 733 q 789 801 817 743 q 760 839 783 819 q 708 888 760 843 q 699 901 708 893 l 694 900 l 689 900 q 593 929 650 929 q 563 942 592 931 q 536 939 546 939 l 519 939 q 500 946 518 939 l 496 946 q 400 899 492 946 q 339 844 388 899 q 286 796 299 826 q 279 790 283 796 z "},"P":{"ha":874,"x_min":18,"x_max":822,"o":"m 454 965 q 478 960 472 960 l 506 961 q 549 951 544 951 q 597 954 551 951 q 654 932 597 944 l 669 932 q 678 933 675 932 q 719 899 682 933 q 763 861 746 899 q 813 778 794 829 q 822 710 821 778 l 822 700 q 813 676 822 690 q 818 643 813 671 l 818 639 q 790 588 806 619 q 785 569 788 588 q 700 496 728 514 q 663 476 700 476 q 640 463 646 468 q 622 468 629 468 q 599 454 614 461 q 593 447 596 447 l 590 447 q 508 433 568 447 q 492 435 506 433 q 383 431 435 435 q 300 443 335 433 q 294 440 296 440 l 294 439 q 304 399 304 413 l 304 389 q 297 360 297 371 q 306 351 297 357 q 304 292 304 313 l 304 229 l 311 215 l 306 117 l 306 110 q 338 82 306 90 q 399 63 372 63 q 415 67 413 67 l 429 67 q 446 49 431 67 l 444 36 q 460 26 460 32 q 440 3 460 22 q 346 15 363 7 q 276 6 276 10 q 236 7 250 7 l 151 7 l 139 6 l 118 10 q 90 6 115 7 q 43 21 43 7 q 46 29 44 29 l 44 33 l 44 39 q 132 67 44 54 q 153 76 132 71 q 175 143 168 99 l 171 221 q 175 236 175 228 l 175 261 q 176 267 175 267 q 175 272 176 268 l 171 426 q 174 496 174 454 q 175 499 174 499 l 174 508 l 174 557 q 171 565 174 563 q 174 574 174 569 l 174 611 q 175 619 174 615 q 167 671 167 658 l 167 706 l 169 718 q 165 757 168 722 q 167 799 167 776 l 167 806 q 151 857 151 839 q 153 863 153 860 q 129 885 143 867 q 83 896 83 888 q 32 894 44 894 l 18 913 l 18 932 q 31 943 18 935 l 36 943 q 53 936 43 943 l 60 936 q 124 950 111 950 l 133 950 q 139 947 139 950 l 150 950 l 175 950 q 222 951 194 950 q 231 950 226 950 q 297 956 253 956 l 311 956 q 328 960 326 960 q 356 950 331 960 q 454 965 376 965 m 333 889 l 319 890 l 315 885 q 318 868 318 874 q 304 811 306 868 q 300 806 301 811 q 304 728 301 742 q 300 714 300 718 q 304 689 300 710 q 300 635 300 651 q 301 607 301 610 l 296 561 q 310 494 296 529 l 308 482 l 314 478 l 318 478 q 342 496 333 486 l 350 496 l 369 490 q 431 489 394 490 q 481 504 454 504 q 539 526 524 518 q 594 540 578 526 q 646 583 635 582 q 654 588 646 588 l 653 611 l 653 617 q 674 658 674 636 q 681 710 681 700 l 681 726 q 678 733 681 731 q 694 750 678 738 l 694 757 q 669 788 669 765 q 597 876 642 838 q 579 906 594 876 l 574 910 l 571 910 l 514 900 q 458 914 469 906 l 449 908 l 422 908 q 381 914 385 914 q 336 889 336 892 l 333 889 z "},"Q":{"ha":1076,"x_min":69,"x_max":989,"o":"m 571 990 q 631 982 583 982 q 638 974 631 979 l 665 974 q 788 913 719 946 l 804 901 l 822 901 q 828 879 825 901 q 872 843 839 858 q 910 799 897 810 q 938 749 910 790 q 950 725 950 732 l 950 704 l 968 682 l 968 660 q 979 631 979 644 l 978 626 q 988 533 982 563 q 989 526 989 531 l 989 517 q 983 499 985 510 q 985 458 985 476 q 975 428 978 428 q 964 406 964 415 l 964 378 q 956 353 956 354 l 956 326 q 921 271 946 317 q 910 244 910 260 q 897 224 904 243 q 829 149 886 204 q 797 133 824 139 q 717 72 774 100 q 583 7 704 61 q 508 -18 508 -7 q 506 -25 506 -22 q 549 -40 535 -28 q 576 -53 551 -40 l 628 -53 q 696 -69 688 -64 l 713 -74 q 726 -72 721 -72 q 785 -82 749 -74 q 806 -68 803 -82 l 815 -69 l 829 -69 q 922 -31 838 -69 q 928 -25 922 -28 l 950 -25 q 958 -35 958 -29 q 951 -53 951 -47 l 954 -62 q 921 -106 954 -87 q 867 -135 917 -112 q 797 -167 847 -151 q 772 -172 797 -169 q 750 -181 772 -176 q 747 -185 750 -185 l 654 -185 q 632 -181 635 -181 l 603 -181 q 499 -158 535 -171 q 454 -135 493 -158 q 415 -121 439 -128 l 411 -124 q 386 -107 403 -124 q 318 -90 340 -90 q 285 -121 307 -90 q 251 -161 271 -157 q 249 -162 251 -162 l 246 -161 q 243 -162 243 -161 q 238 -161 242 -162 l 214 -162 q 185 -131 203 -162 l 185 -128 q 208 -72 185 -108 q 332 -17 281 -36 q 396 6 356 6 q 443 19 421 8 q 454 31 454 19 l 454 32 q 426 40 454 35 q 421 44 426 42 l 411 43 l 388 43 q 338 72 374 43 q 303 92 319 85 q 263 114 293 106 q 201 175 203 171 q 158 232 172 201 q 139 256 139 246 q 131 274 139 261 q 111 321 131 290 q 89 397 89 357 q 75 439 83 401 q 83 475 83 469 q 69 514 75 490 q 93 607 69 550 q 92 636 93 619 q 119 707 92 657 q 117 714 117 711 q 163 789 126 718 q 186 824 175 821 q 236 874 197 832 q 321 932 257 894 q 375 972 360 947 l 399 969 q 458 982 444 974 q 492 988 485 988 l 499 988 q 514 983 513 983 l 518 983 q 571 990 528 983 m 267 731 q 269 714 269 721 q 249 668 249 675 q 251 656 249 667 q 239 636 247 643 l 242 626 q 243 574 242 613 q 228 540 228 550 q 229 524 228 535 q 228 499 228 511 q 238 471 233 499 l 233 447 q 236 411 236 428 l 236 400 q 242 383 236 394 q 239 350 239 361 q 267 260 261 296 q 275 231 269 260 q 318 190 303 190 l 318 189 l 314 182 l 314 179 q 336 143 321 172 q 399 110 367 113 q 490 69 463 69 l 492 69 q 529 74 525 74 l 560 74 q 668 111 626 83 q 721 153 682 111 q 744 189 732 157 q 782 233 749 206 q 810 336 793 246 q 833 383 833 376 q 832 411 833 394 q 835 443 833 440 q 832 471 832 454 q 842 508 842 492 l 842 517 q 835 550 842 524 l 835 554 q 838 583 835 567 q 829 649 829 631 l 829 667 q 811 701 819 676 l 811 733 q 782 789 804 739 q 717 865 763 818 q 638 913 674 913 q 567 926 628 926 q 496 931 532 926 q 440 908 440 915 q 354 857 399 908 l 308 796 q 294 775 308 792 q 281 756 294 769 q 267 731 271 743 z "},"R":{"ha":972,"x_min":24,"x_max":957,"o":"m 399 968 q 419 964 408 964 l 443 965 q 467 961 457 961 l 528 961 l 585 950 l 600 950 l 621 951 q 658 925 621 942 q 694 915 658 918 q 768 869 743 894 q 819 806 785 869 q 833 776 822 804 l 833 754 q 842 732 842 744 l 842 726 q 825 675 842 708 q 788 599 806 614 q 696 519 756 546 q 622 483 692 519 l 596 483 l 572 457 q 640 356 601 428 q 678 310 657 328 q 740 218 707 272 q 765 178 758 206 q 857 89 771 178 q 875 78 864 89 l 896 78 q 953 50 953 71 q 957 31 953 43 l 944 22 l 943 22 q 906 26 910 26 l 897 26 q 888 18 888 19 l 814 22 q 772 17 794 17 l 758 17 q 728 21 747 17 q 722 18 724 18 q 681 72 692 42 q 654 110 661 90 q 599 182 647 128 q 546 268 565 246 q 518 304 546 282 q 471 365 518 324 q 421 447 431 439 q 393 463 403 463 q 333 465 376 463 q 313 429 324 465 q 307 406 308 429 l 307 396 q 306 339 307 369 l 313 288 q 310 265 310 267 l 317 181 q 313 149 313 157 q 367 76 335 76 q 374 72 374 74 l 376 75 l 379 75 q 389 72 386 75 l 401 75 l 419 75 q 449 61 425 68 q 457 50 456 50 q 433 13 457 22 q 422 11 429 11 q 361 17 388 17 q 344 13 349 13 l 338 15 q 315 11 319 11 l 296 15 q 269 11 278 11 q 257 17 267 17 l 242 17 q 204 3 236 13 l 172 3 q 128 7 163 3 q 101 4 103 4 q 90 8 90 6 l 76 7 l 42 7 q 35 15 39 7 l 35 46 q 58 75 35 75 q 104 71 88 71 q 146 94 131 76 l 151 99 l 154 99 l 168 96 q 182 135 181 115 q 174 156 174 153 l 174 213 q 168 256 174 231 q 172 278 172 269 q 165 300 172 283 q 168 308 165 304 q 165 329 165 321 l 165 343 q 175 389 165 358 l 169 417 l 169 446 q 172 453 169 450 q 165 488 165 476 l 165 540 q 161 576 165 567 q 168 593 168 586 l 168 621 q 165 639 168 628 q 174 679 174 661 q 165 703 174 688 l 168 713 q 161 739 161 733 l 161 758 q 160 810 161 776 q 161 818 161 814 q 160 824 160 822 q 164 836 164 831 q 122 878 158 836 q 90 882 122 879 q 51 878 78 882 q 24 918 24 910 l 24 933 q 44 950 24 936 q 157 954 139 951 q 172 951 165 951 l 204 954 q 228 947 221 947 l 233 947 q 315 957 261 957 q 399 968 315 961 m 461 900 l 440 901 q 363 890 363 894 q 331 863 331 882 q 306 818 306 829 q 311 796 306 807 q 310 749 310 768 q 311 726 310 740 l 310 714 q 311 707 310 710 q 307 653 307 679 q 310 590 307 628 q 307 544 307 569 q 344 524 315 524 q 365 521 356 521 l 383 524 q 403 521 393 521 q 546 539 546 533 q 632 581 621 574 q 669 643 643 592 q 683 653 678 644 l 674 708 l 674 710 q 688 735 688 728 l 688 754 q 678 774 688 760 q 642 840 678 779 q 571 883 642 863 q 517 904 532 904 l 461 900 z "},"S":{"ha":831,"x_min":65,"x_max":772,"o":"m 354 971 l 378 969 l 399 969 q 413 965 413 968 l 433 969 q 472 957 469 957 l 476 958 l 531 935 q 549 932 542 932 q 624 950 610 940 l 639 950 l 667 928 l 665 918 q 688 807 679 899 q 701 774 694 801 q 722 743 722 754 q 719 742 722 742 l 724 721 q 700 696 724 713 q 669 694 674 694 q 643 717 643 701 q 621 751 643 724 q 582 800 621 764 q 521 861 538 861 q 442 896 479 889 q 396 908 432 903 l 382 906 q 325 908 371 906 q 294 888 325 903 q 268 871 293 881 q 240 853 268 868 q 206 761 215 826 l 206 743 q 228 692 214 692 q 260 663 228 689 q 308 632 285 632 q 365 611 344 611 q 421 589 385 611 l 451 589 q 486 572 457 589 l 508 572 q 653 507 576 551 q 693 468 693 472 q 772 318 738 381 q 767 286 772 313 q 768 261 767 282 q 758 217 768 236 q 740 165 758 206 l 740 161 l 742 147 q 692 92 738 147 q 650 54 668 75 q 614 25 647 54 l 596 15 l 586 17 l 574 17 q 556 4 565 17 l 543 4 q 478 -11 489 -11 l 435 -11 q 360 19 410 -11 q 313 15 338 15 q 278 38 310 24 l 267 38 q 246 35 257 38 q 229 38 238 38 q 190 8 210 31 l 181 11 l 164 11 q 131 29 157 18 q 118 51 118 42 q 100 126 108 126 q 79 192 100 139 q 65 269 71 217 q 122 296 65 296 q 167 243 132 293 l 240 160 q 289 117 240 156 q 389 68 381 68 q 411 64 408 65 q 413 65 413 64 l 474 61 l 517 69 q 586 107 517 75 q 626 146 626 126 l 626 165 q 647 226 647 208 q 640 253 640 249 l 640 269 q 643 292 640 278 q 631 326 631 317 q 567 388 611 339 q 492 415 560 388 q 438 436 453 421 l 433 433 q 396 444 428 433 q 339 461 381 444 q 307 468 318 461 q 219 503 278 468 l 215 501 q 193 525 213 501 q 133 590 176 528 q 100 689 100 665 q 101 694 101 692 q 97 729 97 711 l 97 760 q 122 808 122 785 q 119 818 119 811 q 150 849 128 822 l 150 857 l 149 867 q 264 947 214 926 q 338 958 264 951 q 354 971 338 960 z "},"T":{"ha":1007,"x_min":4,"x_max":996,"o":"m 785 978 l 797 978 q 819 969 800 978 q 861 974 840 974 l 883 974 q 911 953 893 974 l 911 939 q 943 858 911 910 q 996 775 967 775 q 992 740 992 749 l 993 729 q 960 688 993 724 q 954 674 960 674 q 919 692 925 692 q 865 771 890 692 q 815 833 854 793 q 757 872 771 869 q 638 911 693 911 q 607 915 638 915 q 569 899 588 906 q 554 869 557 885 q 558 847 557 865 q 553 740 558 825 q 561 704 561 718 l 561 640 q 554 622 561 636 q 557 603 557 611 q 553 579 557 597 q 554 514 553 553 q 553 463 554 507 q 554 385 554 419 q 561 360 561 365 q 557 336 561 354 q 558 322 558 328 q 550 293 553 310 l 553 281 q 550 226 553 267 q 557 194 557 214 q 550 158 557 183 q 567 110 558 139 q 615 78 589 78 q 632 69 615 72 l 642 69 q 692 72 663 69 q 726 36 694 72 q 704 8 726 8 q 685 4 690 4 l 675 4 q 639 10 667 4 l 624 10 q 604 6 618 10 q 518 13 544 8 q 486 10 507 13 q 451 13 463 13 q 426 10 431 10 l 396 14 q 376 8 376 11 l 342 14 q 317 10 338 14 q 300 14 310 14 l 294 14 q 271 10 274 10 q 256 35 256 17 l 256 43 q 274 72 256 53 l 279 72 q 325 56 286 72 l 329 56 q 392 90 329 67 q 418 161 418 124 q 429 218 418 192 q 421 289 421 274 l 421 344 q 417 453 421 389 q 433 490 422 453 l 433 529 q 439 543 439 536 q 426 603 435 597 l 426 615 q 425 661 426 631 l 426 661 q 425 664 426 664 q 426 694 426 683 l 426 717 q 435 765 426 724 q 433 817 433 796 l 433 833 q 435 842 433 838 q 396 906 435 882 q 332 911 392 906 q 290 897 321 911 q 194 856 244 889 q 142 806 171 828 q 125 774 139 796 q 114 732 125 744 q 104 719 114 726 q 101 708 104 713 l 92 711 q 25 690 81 699 q 4 749 19 697 q 7 765 7 760 l 4 779 q 33 839 33 811 q 67 860 50 854 l 65 885 l 65 890 q 121 967 93 967 l 131 969 l 139 967 q 169 971 154 971 q 189 965 176 968 q 288 974 233 967 l 294 974 q 315 963 304 967 l 342 967 l 414 960 q 438 969 431 965 l 478 969 q 531 963 507 963 q 567 965 564 965 l 567 963 l 582 967 q 625 965 608 965 q 740 969 724 969 l 764 969 q 785 978 776 969 z "},"U":{"ha":1071,"x_min":29,"x_max":1019,"o":"m 1006 961 q 1019 925 1019 954 q 1006 896 1007 907 q 997 888 997 894 q 951 889 967 889 l 950 889 q 922 867 933 889 l 892 838 l 892 756 q 894 726 892 743 q 886 701 886 704 l 886 697 q 892 631 886 671 l 892 614 q 890 604 892 607 l 894 571 l 886 479 q 888 419 888 443 q 883 410 888 417 q 886 329 886 358 l 886 325 q 879 286 879 292 l 882 267 q 836 151 882 240 q 799 107 819 128 q 761 63 761 64 q 692 25 753 54 q 658 14 682 25 l 643 14 q 629 21 633 14 q 607 0 625 21 l 603 0 q 557 6 575 6 l 553 6 q 499 3 511 6 l 436 14 l 410 14 q 408 17 408 14 l 404 14 l 397 14 q 354 29 389 29 l 324 39 q 265 67 285 60 q 201 143 201 138 l 169 213 q 174 232 169 218 q 160 261 161 244 q 165 317 161 296 l 165 322 q 153 356 153 349 q 168 401 168 365 l 168 436 q 157 461 168 444 l 157 464 q 161 513 161 510 l 161 529 q 157 553 157 550 l 157 561 q 172 600 164 568 q 169 654 169 649 q 172 707 169 676 q 169 796 169 742 q 144 850 169 838 q 117 879 144 867 l 60 879 q 29 908 42 879 q 32 913 29 913 l 29 922 l 29 931 q 51 943 29 933 q 88 942 76 942 q 125 943 96 942 q 138 939 131 939 l 189 946 q 271 938 213 938 q 288 943 282 943 l 290 943 q 319 938 317 938 l 335 938 q 356 943 354 943 l 367 943 q 385 942 374 943 q 418 946 394 946 q 435 900 433 946 q 418 888 424 893 l 408 889 l 404 889 q 376 879 401 889 l 354 879 q 315 864 315 869 q 299 825 299 846 l 299 800 q 303 749 299 771 q 296 663 300 683 q 304 643 296 653 l 296 529 l 296 479 q 292 431 296 469 q 304 286 299 299 q 303 265 304 283 q 343 165 303 239 q 410 89 343 143 q 464 71 449 71 l 493 71 q 544 58 540 58 l 550 58 q 571 68 554 58 l 650 76 l 660 76 q 663 75 663 76 q 724 115 701 92 q 789 193 756 128 q 799 211 789 196 l 797 215 l 797 229 q 811 271 811 247 q 824 293 819 290 l 824 301 q 815 326 824 304 l 815 338 q 825 367 815 339 l 825 386 q 828 401 825 399 q 825 419 825 413 l 825 443 q 828 482 825 463 q 824 549 824 518 q 828 576 824 554 l 825 601 q 829 651 829 638 l 828 665 q 833 686 833 682 l 833 699 q 829 722 833 701 q 832 771 829 733 q 829 783 832 774 q 832 804 832 794 q 776 883 814 850 q 704 918 704 883 l 706 918 l 704 922 l 704 935 q 719 946 708 946 l 785 946 q 794 947 792 946 l 806 946 q 869 943 831 946 q 994 961 961 943 l 1006 961 z "},"V":{"ha":1033,"x_min":10,"x_max":996,"o":"m 975 982 l 983 982 q 996 939 994 982 q 971 893 988 939 l 965 889 q 947 893 951 893 l 926 893 q 872 860 890 893 l 839 818 q 838 817 838 818 l 838 808 l 839 788 q 779 678 825 782 q 772 640 775 678 q 763 618 768 640 q 754 594 754 608 q 757 586 757 592 q 717 497 740 576 q 700 453 717 475 q 643 336 700 447 q 597 222 628 271 l 597 192 q 564 149 597 181 l 563 133 q 564 128 564 131 q 546 113 553 113 l 546 86 q 547 78 546 82 q 538 51 547 64 q 535 43 538 46 q 538 35 538 39 q 504 0 538 25 l 489 1 l 474 1 q 453 78 453 11 q 454 110 454 104 q 424 138 442 115 l 424 146 q 425 154 424 151 l 394 217 q 381 268 394 247 q 368 296 368 288 l 369 300 q 344 336 344 331 q 347 339 344 339 l 344 343 l 344 356 l 347 368 l 328 389 l 326 400 l 326 425 q 314 449 315 436 q 289 500 308 449 q 251 583 251 575 q 250 599 250 590 l 251 610 q 221 669 244 610 l 196 708 l 197 742 q 165 814 192 767 q 103 897 143 874 l 94 903 l 89 903 q 68 901 78 903 q 36 906 47 906 l 26 903 q 11 931 11 919 q 10 947 10 944 l 32 963 q 178 953 129 963 q 213 961 193 961 l 251 961 q 279 963 265 961 q 294 961 286 961 q 335 965 324 965 q 364 961 357 961 l 399 967 q 419 931 419 958 q 421 922 421 931 q 390 910 421 915 q 381 906 390 906 l 356 906 q 294 854 306 906 l 294 850 q 315 806 294 842 q 344 724 344 733 q 376 649 344 718 q 394 597 383 619 q 413 535 413 563 q 446 457 429 514 q 453 436 450 457 l 450 428 q 469 403 450 425 l 469 376 q 492 332 479 368 q 500 315 494 332 q 508 311 503 315 l 506 297 l 506 281 q 521 254 517 271 q 543 246 532 246 q 550 272 547 250 q 574 331 558 276 q 589 376 589 364 q 615 436 594 382 q 640 506 640 474 q 694 632 694 626 q 703 649 703 642 l 703 665 q 711 676 703 667 l 711 694 q 721 700 711 699 l 721 707 q 767 806 742 758 l 767 842 q 708 893 753 893 l 682 907 q 657 932 657 907 l 657 951 q 671 967 669 967 l 674 967 q 721 961 679 967 l 818 969 q 842 965 839 965 q 911 975 911 969 l 931 975 l 943 974 q 975 982 960 982 z "},"W":{"ha":1422,"x_min":53,"x_max":1372,"o":"m 1319 968 l 1326 968 q 1367 946 1333 961 q 1372 917 1372 918 q 1335 893 1372 901 l 1315 893 q 1226 818 1296 893 q 1217 810 1224 818 l 1218 799 l 1218 783 q 1149 588 1185 675 q 1136 533 1149 556 l 1133 514 q 1136 506 1136 510 q 1113 489 1131 506 l 1115 467 l 1115 458 l 1108 449 l 1111 438 q 1085 381 1085 424 q 1058 292 1079 339 q 1032 226 1058 285 q 1024 172 1024 182 q 1026 164 1026 168 q 994 99 994 151 l 975 18 q 950 -1 961 -1 l 942 -1 q 914 22 929 -1 q 913 50 913 36 l 913 51 q 897 96 897 72 q 900 113 900 104 l 900 115 q 885 140 892 122 q 872 190 879 140 q 857 233 867 192 q 844 251 850 251 l 847 267 l 847 271 l 832 326 l 832 335 q 836 340 836 340 l 836 344 q 817 379 817 344 q 819 392 817 381 q 790 446 811 392 q 771 519 771 503 q 750 575 765 519 q 735 619 750 585 q 725 635 735 626 l 726 644 l 726 660 q 717 672 719 672 l 714 672 q 706 657 706 668 l 707 643 q 661 564 696 640 q 638 482 653 503 q 624 432 628 465 q 604 376 614 418 q 588 311 594 376 q 571 278 582 307 q 536 182 564 242 q 522 165 536 176 q 526 140 526 151 l 526 133 q 507 108 526 124 l 511 68 q 474 -10 476 -7 l 471 -10 q 439 3 439 -10 q 417 63 439 8 q 406 96 417 83 l 406 113 q 390 151 406 126 l 390 168 q 378 197 382 175 q 381 239 381 233 q 360 265 381 242 l 361 286 q 349 304 353 286 q 340 328 343 304 q 321 379 335 328 q 317 383 317 379 q 303 463 317 446 q 247 625 276 517 l 239 636 l 239 664 l 218 718 q 211 725 215 718 l 211 731 q 186 819 211 761 q 142 881 164 872 q 133 888 142 885 q 106 885 115 885 q 76 889 101 885 q 68 888 72 888 q 53 911 53 901 l 53 921 q 92 942 58 935 l 93 942 q 279 936 219 936 q 393 946 294 936 q 410 944 399 946 l 422 946 q 453 928 431 946 l 453 924 q 450 921 453 921 l 453 917 l 453 913 q 426 896 438 896 l 410 896 q 386 899 401 896 q 336 858 351 883 q 321 840 336 854 l 321 811 q 336 754 336 782 q 365 672 347 719 q 401 564 365 625 q 413 531 401 531 l 413 529 q 410 519 413 528 q 417 503 417 510 l 417 490 l 404 474 l 404 469 q 438 436 438 443 q 467 336 450 400 l 478 314 l 478 304 q 475 296 478 300 q 515 267 493 267 q 524 274 524 269 l 524 296 q 549 368 543 340 q 576 458 564 408 l 575 472 q 597 490 578 472 l 596 503 q 611 550 596 529 q 625 600 611 557 q 654 688 625 613 q 674 733 665 733 q 685 753 674 746 l 686 753 q 650 847 686 793 q 613 885 613 881 l 601 885 q 535 899 569 896 l 526 908 l 526 919 q 528 921 526 921 l 526 925 l 526 938 q 543 944 528 944 l 568 944 q 583 946 583 944 l 608 944 l 876 944 l 889 942 q 901 944 892 944 q 913 936 911 940 l 913 928 q 910 919 913 922 q 914 908 914 913 l 900 900 q 883 903 888 903 q 808 885 808 893 q 788 854 788 864 q 803 807 788 824 q 813 790 803 801 l 811 765 q 824 746 811 761 q 835 722 824 739 q 844 700 835 718 q 865 604 844 636 q 881 558 865 594 q 904 503 881 526 q 908 497 904 497 l 906 486 l 906 467 q 925 413 925 440 q 946 347 932 381 q 957 328 946 342 q 958 275 957 321 q 950 242 957 257 q 975 231 950 231 q 990 258 990 238 l 1007 322 q 1047 421 1007 340 l 1068 438 q 1064 476 1064 469 q 1081 526 1081 496 q 1100 608 1096 574 q 1115 647 1107 608 q 1140 735 1125 664 q 1172 814 1151 736 q 1169 840 1169 828 q 1182 871 1182 840 q 1164 889 1178 871 l 1156 889 q 1094 907 1135 889 q 1071 904 1085 907 q 1047 919 1054 904 l 1047 925 q 1113 950 1047 942 l 1225 950 q 1319 968 1299 950 m 754 881 l 758 879 l 767 879 q 794 896 786 879 l 794 900 l 783 903 l 764 903 q 754 881 761 903 z "},"X":{"ha":983,"x_min":28,"x_max":967,"o":"m 854 961 l 864 961 q 897 954 886 954 l 907 957 l 938 931 q 940 922 940 926 q 911 893 940 906 q 882 897 896 897 l 881 897 q 775 825 831 881 q 751 793 771 825 q 714 729 718 760 q 671 683 671 694 q 646 644 668 683 q 614 604 614 621 q 563 561 613 592 q 556 524 556 536 l 556 517 q 582 485 556 504 q 590 482 588 485 l 589 472 q 614 442 589 464 q 636 401 614 435 q 693 310 657 382 q 731 247 731 281 l 747 239 q 756 242 750 242 l 757 238 q 756 229 757 233 q 782 201 758 219 l 782 185 q 815 149 782 168 q 826 133 826 142 q 825 118 825 122 q 863 100 842 114 q 915 74 879 86 q 950 75 943 75 q 967 63 958 75 l 967 57 q 953 22 967 31 q 928 18 938 18 l 921 18 q 906 21 913 18 q 876 17 882 18 l 860 22 l 804 14 l 794 14 q 719 22 765 14 q 642 13 692 22 q 572 26 572 14 q 574 33 572 29 l 572 44 q 582 74 578 44 q 585 75 585 74 l 606 74 l 621 74 q 679 101 679 89 l 679 122 q 642 171 642 163 l 642 185 q 614 199 642 189 q 594 231 614 203 q 578 268 594 254 q 538 328 569 272 q 526 339 535 328 l 526 343 l 529 347 l 508 365 q 457 414 493 414 l 456 414 q 413 353 456 404 q 319 224 413 349 q 282 171 313 206 l 274 106 q 285 89 285 92 l 297 89 q 361 67 299 89 l 379 67 q 396 53 396 56 l 396 39 q 346 17 396 17 q 310 18 321 17 q 263 17 288 17 l 243 17 q 233 14 236 17 l 221 17 l 208 17 q 169 14 189 17 l 132 18 q 106 8 118 10 q 29 40 29 14 q 28 56 28 43 q 61 82 49 82 l 83 82 q 156 111 89 88 q 183 154 171 139 q 256 238 256 222 q 276 269 271 264 l 274 279 q 344 354 322 317 q 404 433 369 401 q 424 458 424 453 q 426 472 426 461 l 426 476 q 379 553 417 501 q 353 588 353 569 q 314 654 342 599 q 282 693 290 671 q 225 782 256 728 q 196 825 215 790 q 183 839 186 839 l 174 839 q 144 833 161 839 l 140 839 l 140 865 q 97 883 129 883 q 72 893 97 889 q 44 904 72 896 q 54 939 49 936 q 93 957 71 939 q 124 954 114 954 l 161 954 l 174 957 q 218 949 185 949 l 243 949 q 294 954 261 949 q 306 942 301 942 q 371 954 349 942 q 436 939 428 954 q 444 931 440 939 l 444 922 q 406 897 431 897 q 400 893 406 896 q 367 897 369 896 q 344 871 344 885 q 333 847 344 863 q 372 781 372 782 q 415 732 410 757 q 461 661 444 669 q 475 635 471 651 q 496 579 496 601 l 518 579 q 554 622 554 606 q 610 706 597 679 q 683 781 611 713 q 692 807 683 807 q 706 825 706 824 q 708 864 706 831 q 663 892 692 878 q 661 893 663 893 l 636 893 q 614 900 614 900 q 599 897 606 897 l 594 904 q 614 949 601 949 l 657 949 q 700 946 672 949 q 732 953 713 953 l 735 953 l 756 946 q 786 950 764 946 q 818 949 807 949 q 854 961 818 957 z "},"Y":{"ha":1010,"x_min":3,"x_max":994,"o":"m 904 989 q 922 982 908 989 q 942 986 938 985 q 994 953 976 986 q 990 943 990 946 q 993 926 993 928 q 954 900 993 913 q 925 889 949 900 q 857 864 892 886 q 824 822 843 846 q 765 732 807 786 q 728 669 746 683 q 710 635 719 669 l 697 613 q 642 532 679 567 q 590 438 642 528 q 582 394 590 429 q 586 349 586 358 l 586 342 q 583 318 586 332 q 590 301 586 307 l 590 297 q 578 178 583 297 q 596 113 586 113 q 618 92 608 92 l 629 93 q 660 85 658 85 q 700 92 685 92 l 719 92 q 735 68 735 78 q 722 29 731 29 q 711 19 717 28 q 626 29 661 21 q 582 21 590 21 l 558 21 q 529 24 547 21 l 525 21 l 499 25 q 478 24 488 24 l 474 24 q 457 28 472 24 l 435 28 q 417 24 429 28 q 376 25 393 25 q 347 11 376 21 l 331 11 q 313 8 324 11 q 286 47 286 22 q 354 88 286 78 q 389 81 381 81 l 393 81 q 440 131 407 81 q 444 140 443 140 l 443 161 l 443 194 q 439 244 439 242 l 439 288 q 440 306 439 294 q 436 333 439 308 l 440 376 q 422 410 433 386 q 410 442 414 410 q 383 482 394 453 q 367 496 367 493 l 368 511 q 325 567 358 519 q 304 614 317 575 q 258 676 263 647 q 201 771 233 740 q 136 867 151 850 q 83 885 132 867 l 81 885 q 36 879 43 879 l 32 879 q 3 911 10 879 l 3 915 q 29 972 3 956 l 46 972 q 75 974 57 972 q 151 956 119 956 q 172 949 151 951 q 178 951 178 949 l 203 949 l 242 949 q 313 956 268 956 l 342 956 q 406 961 351 956 q 431 936 406 960 l 431 919 l 406 896 l 385 897 q 319 864 319 878 q 343 799 325 821 q 389 736 369 765 q 414 682 389 728 q 464 621 419 682 q 524 532 486 575 l 554 532 q 586 571 569 532 q 599 596 586 589 q 629 644 614 607 q 718 790 664 693 q 735 821 725 797 q 740 835 740 822 q 718 885 740 875 q 676 910 676 893 q 671 911 675 910 q 638 904 663 907 q 618 931 618 914 l 621 935 l 618 947 q 663 969 622 951 q 728 961 692 968 q 853 968 782 965 l 853 965 q 904 989 888 975 z "},"Z":{"ha":899,"x_min":57,"x_max":817,"o":"m 775 951 q 776 950 776 951 l 792 951 l 804 951 q 817 946 817 950 l 817 943 q 810 918 813 940 q 814 901 814 911 l 814 896 q 796 869 814 890 q 736 785 775 832 q 674 679 714 735 q 632 625 661 657 l 615 590 l 618 575 q 569 533 601 575 q 533 469 563 531 q 504 435 528 469 q 440 339 469 411 q 400 296 400 304 q 374 257 383 267 q 331 199 349 229 q 311 168 321 192 q 303 147 306 168 q 275 108 285 129 q 267 96 267 108 l 267 85 q 290 64 275 74 q 307 67 306 67 q 328 60 310 67 q 388 68 340 67 q 450 63 450 65 q 550 88 494 68 q 654 140 639 125 q 682 178 671 160 q 721 215 682 182 q 768 261 721 240 q 797 246 790 261 q 808 228 804 246 q 789 157 808 190 q 775 106 789 126 q 758 50 758 68 q 732 32 751 43 q 696 0 714 0 l 692 0 q 667 7 672 7 l 658 7 q 619 4 639 7 q 585 8 593 8 l 497 -1 l 454 7 q 392 0 433 3 q 371 3 382 3 q 297 0 343 3 l 286 3 l 282 0 q 260 3 278 0 q 208 0 253 3 q 171 3 200 0 q 124 0 143 0 l 103 3 q 76 0 93 0 l 68 0 q 57 24 60 0 l 57 46 q 94 96 81 90 q 121 129 113 104 q 133 144 131 144 q 165 176 165 172 l 163 181 q 206 242 176 215 q 256 307 224 276 q 328 410 271 346 q 364 457 344 444 q 396 511 378 469 q 438 569 438 563 q 440 582 438 571 q 438 590 438 585 q 483 625 475 625 l 485 625 l 485 638 q 517 693 489 657 q 538 735 531 729 q 574 794 565 754 q 611 836 611 818 q 618 849 618 838 l 618 854 q 594 878 618 871 l 526 878 q 419 879 494 878 q 379 869 419 872 q 306 838 379 867 q 229 756 229 790 q 200 696 229 733 q 175 676 183 676 l 158 676 q 140 679 151 676 q 111 658 128 679 q 94 688 94 665 l 94 711 q 142 799 113 779 q 144 801 144 799 l 142 811 q 165 890 149 811 q 210 938 175 915 q 222 943 213 943 q 238 942 229 943 q 272 946 268 944 q 299 942 282 942 q 344 946 336 946 l 347 946 q 375 943 358 946 q 382 946 379 946 q 408 942 399 942 q 436 946 424 942 q 497 938 497 940 l 518 939 l 542 939 q 543 938 543 939 l 547 939 l 568 939 q 585 935 569 939 l 611 935 q 635 939 632 939 l 661 939 q 671 938 668 939 q 729 946 708 940 q 746 942 738 942 l 750 942 q 775 951 756 942 z "},"a":{"ha":644,"x_min":65,"x_max":657,"o":"m 403 624 q 485 594 440 624 q 525 539 485 593 l 535 501 l 542 407 l 542 396 q 539 367 539 369 q 543 338 543 351 l 543 329 q 529 307 531 317 q 538 290 532 299 l 538 272 l 543 264 l 543 244 l 535 217 q 550 119 535 119 l 551 119 q 599 142 594 136 l 636 146 q 657 108 657 126 l 657 104 q 653 75 657 92 q 657 61 657 65 q 611 26 646 44 q 588 7 601 14 q 471 24 525 7 q 411 78 440 67 q 385 58 407 78 q 343 24 371 42 q 286 6 308 6 q 242 1 263 1 l 222 1 q 192 10 221 1 l 153 10 q 90 50 133 25 l 90 58 q 93 61 90 61 q 68 103 82 88 q 65 143 68 108 q 68 158 65 150 q 65 185 65 172 l 65 201 q 115 264 107 243 q 154 293 140 293 q 199 318 156 296 q 293 361 215 331 l 354 375 l 379 379 q 415 418 379 382 q 418 506 419 443 l 418 510 q 403 539 418 517 q 374 564 389 561 q 336 567 357 564 q 314 558 326 567 l 301 561 q 214 511 242 556 l 226 483 q 231 422 246 429 q 208 392 217 408 l 169 379 l 150 379 q 99 403 136 379 q 82 421 82 403 l 72 443 l 72 463 q 83 504 72 465 q 142 564 107 533 q 178 586 150 564 q 251 613 201 586 q 288 624 271 624 l 356 633 q 400 624 363 633 l 403 624 m 196 175 l 196 163 q 238 99 208 128 q 389 117 318 69 q 421 188 407 124 l 421 231 q 419 265 421 250 l 424 311 q 408 325 418 311 l 331 317 q 299 307 318 307 l 226 261 q 211 221 214 251 q 203 189 206 221 q 196 175 199 189 z "},"b":{"ha":688,"x_min":-11,"x_max":640,"o":"m 175 1017 l 183 1017 q 207 994 207 1013 q 204 971 204 976 q 213 907 204 960 q 211 872 211 886 l 213 858 l 211 847 q 213 806 213 825 q 200 749 200 750 l 200 746 q 208 669 208 728 l 208 651 q 204 588 208 636 q 215 564 207 564 q 328 618 322 618 q 351 619 336 619 l 356 619 q 364 618 360 619 q 393 624 383 624 q 446 601 442 607 q 449 599 446 599 q 478 606 456 606 l 479 606 q 504 590 486 596 q 576 531 525 567 q 596 492 590 496 q 618 463 618 478 q 632 394 625 463 q 636 374 636 394 q 631 339 636 364 q 639 231 635 324 q 640 229 640 231 q 607 153 615 182 q 576 114 600 133 q 490 39 544 57 q 457 18 457 22 q 450 17 454 18 q 432 18 439 18 l 397 1 l 393 1 q 313 10 349 1 l 300 8 q 204 61 285 18 q 183 65 204 64 q 136 8 172 29 l 129 0 q 93 21 93 1 q 106 132 106 124 q 103 179 103 169 l 106 179 l 103 183 l 103 200 q 107 247 103 213 q 103 267 106 263 q 106 276 103 274 q 103 335 103 324 q 106 429 106 421 q 94 453 94 449 q 97 482 97 469 l 97 506 q 94 514 97 511 q 101 558 101 544 l 101 599 q 97 632 101 603 l 97 711 q 89 779 97 761 q 93 810 89 790 q 49 894 82 894 q 25 911 35 910 q 6 907 21 910 l -11 922 q 17 971 -6 971 q 114 996 46 982 q 175 1017 115 999 m 207 471 q 208 425 207 467 q 207 357 208 414 q 211 331 211 336 q 203 300 203 306 q 204 247 204 268 l 204 226 q 217 174 204 219 q 226 146 217 160 q 279 107 226 129 q 318 99 279 101 q 344 76 344 83 q 478 125 440 76 q 499 179 488 147 q 500 182 500 179 l 500 194 q 508 256 508 249 q 504 283 504 275 q 513 336 513 326 l 500 436 q 475 492 481 488 q 424 531 431 531 q 390 542 414 531 q 343 546 389 542 l 335 546 q 267 526 314 538 q 207 471 207 476 z "},"c":{"ha":618,"x_min":40,"x_max":564,"o":"m 365 633 l 378 633 q 444 608 440 608 l 444 607 q 450 608 449 608 q 478 594 454 608 q 518 567 508 586 q 546 540 546 542 q 551 519 550 540 l 563 497 l 563 461 l 564 451 l 542 432 l 543 422 l 543 413 q 457 388 531 390 l 454 388 q 393 436 433 388 q 385 453 393 443 q 382 457 385 457 q 393 546 385 503 q 313 565 375 556 l 308 565 q 229 522 300 565 q 188 460 188 485 q 175 439 175 442 q 178 410 175 436 l 163 346 l 165 333 q 163 332 165 332 q 169 261 167 328 q 188 197 176 256 q 260 104 231 111 q 283 85 264 104 l 296 85 l 344 75 l 369 75 q 417 93 417 85 q 490 147 465 107 q 529 186 526 186 l 535 186 q 538 185 538 186 q 543 186 542 186 q 563 165 563 179 l 563 139 l 564 129 q 478 50 531 96 q 453 21 472 38 q 440 24 451 21 q 397 0 397 10 l 394 0 q 386 3 390 0 l 356 -10 l 331 -6 l 317 -8 q 264 -6 290 -6 l 254 -8 q 242 4 254 -4 l 238 3 q 226 11 228 11 l 194 11 q 149 44 164 42 q 81 122 81 114 q 69 151 81 129 q 47 226 69 158 l 40 258 q 43 279 40 268 q 40 303 40 297 q 43 356 43 338 q 51 388 49 356 q 69 443 69 401 q 94 490 76 446 q 165 557 156 556 q 225 607 210 582 l 243 607 q 264 625 246 607 l 293 625 q 339 618 332 618 l 349 626 l 353 626 l 357 625 q 365 633 357 628 z "},"d":{"ha":732,"x_min":60,"x_max":736,"o":"m 515 1024 l 526 1021 l 567 1021 q 608 972 593 1021 q 611 947 611 961 q 596 906 596 917 l 608 872 l 607 847 q 619 821 607 843 q 617 749 619 797 q 625 665 617 688 l 625 664 q 626 572 625 628 q 621 546 621 558 q 629 524 626 524 l 626 513 q 631 463 626 500 q 629 454 631 458 q 631 406 631 425 l 631 357 q 625 322 625 338 q 626 267 625 308 q 617 258 618 263 l 617 253 q 621 229 621 232 q 619 199 621 225 q 622 174 622 183 q 619 156 619 160 l 619 151 q 658 93 619 129 q 675 85 665 93 l 683 85 q 731 54 731 82 q 736 31 736 54 q 672 13 714 13 l 625 22 q 582 8 589 18 l 578 8 q 532 18 554 17 q 522 31 532 21 l 522 65 q 536 86 522 86 q 542 99 542 94 l 529 107 q 515 97 526 107 q 489 74 496 89 q 422 17 433 17 q 383 6 414 17 q 375 13 375 10 q 303 0 369 13 q 249 6 268 6 q 240 4 244 4 q 185 38 235 13 q 113 106 139 61 l 92 139 q 68 199 92 146 q 64 331 64 271 q 68 353 68 350 q 60 369 68 360 l 60 372 q 79 407 79 399 l 79 428 q 92 457 88 440 q 125 507 122 488 q 153 536 129 507 q 201 581 169 538 q 228 596 203 581 q 288 617 236 607 q 342 621 290 617 l 388 621 q 435 600 435 603 q 460 585 450 594 q 481 588 463 585 l 499 585 q 506 601 506 596 l 506 608 q 503 618 506 615 l 506 631 l 506 640 q 493 668 506 656 l 493 676 q 489 736 493 688 l 499 765 q 497 792 497 782 q 510 811 510 799 q 499 847 499 838 l 501 867 q 436 919 490 893 q 431 926 436 924 l 426 926 q 381 922 418 926 q 358 949 358 939 l 358 953 q 397 989 358 969 l 404 989 q 410 986 406 989 q 472 1008 439 986 l 493 1008 q 515 1024 501 1008 m 182 372 l 182 351 l 172 338 l 176 317 q 172 279 172 299 q 210 179 172 263 l 210 171 l 207 161 q 249 119 210 161 q 324 72 294 82 q 329 65 324 69 q 429 86 357 65 q 494 119 465 86 q 515 161 515 154 q 518 211 515 174 q 515 238 515 228 q 519 263 519 251 l 519 267 q 511 297 519 283 q 514 353 514 339 q 511 418 514 367 l 514 428 q 506 446 510 439 l 506 475 q 464 528 499 493 l 433 539 q 404 554 410 549 l 375 554 q 263 533 281 542 q 231 499 231 504 q 219 471 219 478 q 190 415 207 471 q 182 372 182 383 z "},"e":{"ha":654,"x_min":60,"x_max":615,"o":"m 319 624 l 331 622 l 356 622 q 382 615 360 622 q 421 618 415 618 q 475 593 436 593 q 514 551 514 574 q 572 469 558 507 q 581 438 575 469 q 601 351 589 424 l 601 340 q 554 311 601 319 l 533 318 l 444 318 q 394 315 419 318 q 340 319 344 319 q 322 318 329 318 l 285 318 q 214 322 264 318 q 206 300 206 306 l 206 267 l 226 204 l 226 203 l 225 192 q 243 163 233 192 q 288 121 260 139 q 361 89 288 106 q 381 82 361 83 l 396 82 l 407 93 l 428 93 q 504 138 479 106 q 543 178 508 138 l 547 179 q 560 178 549 179 q 593 182 582 182 q 615 132 610 182 l 615 129 q 560 69 568 69 q 500 22 544 67 l 489 24 l 433 -4 q 432 -7 433 -7 l 428 -7 q 394 -3 397 -3 l 383 -3 q 368 -11 375 -3 q 246 8 299 -7 q 214 24 235 8 q 158 56 168 47 l 94 129 q 69 200 94 144 q 60 225 60 210 q 76 260 76 246 l 76 275 q 68 288 68 285 q 85 376 68 338 q 82 393 82 388 q 100 436 86 394 q 154 531 149 525 q 239 589 208 583 q 275 611 268 604 l 290 611 q 319 624 319 618 m 364 546 l 331 546 q 297 526 326 540 q 263 504 269 513 q 226 465 263 501 q 218 440 226 458 l 217 407 l 235 390 q 288 394 279 394 q 339 393 304 394 q 436 397 401 397 q 467 428 436 401 q 454 463 467 435 q 444 500 446 483 q 383 546 390 546 l 383 547 l 364 546 z "},"f":{"ha":439,"x_min":36,"x_max":454,"o":"m 394 1024 q 428 985 428 1006 l 454 938 q 442 889 446 925 q 411 863 417 863 l 396 863 l 383 860 q 297 900 325 875 l 293 900 q 268 875 268 893 l 268 851 q 281 838 281 840 q 264 813 264 828 q 257 756 264 801 q 264 722 264 735 l 264 714 q 253 642 253 668 l 253 614 q 285 596 276 596 l 315 596 q 336 608 328 608 l 339 608 q 353 606 350 608 q 371 608 364 608 l 382 608 q 400 581 397 608 q 407 575 403 581 l 407 533 q 365 504 407 513 l 346 504 q 278 517 331 511 q 264 486 264 517 l 264 439 q 265 399 264 422 q 256 339 260 376 q 260 306 256 318 q 257 263 257 279 l 257 240 q 264 185 257 229 l 264 182 q 253 143 260 156 q 326 92 253 104 q 342 85 328 85 l 358 85 q 383 68 367 76 q 392 33 389 63 q 363 8 365 18 l 243 14 l 231 13 q 204 21 219 14 q 160 18 176 18 l 158 18 q 125 8 129 8 q 43 25 99 17 q 36 39 36 32 l 36 63 q 107 101 44 75 q 125 110 107 104 q 136 131 136 124 q 133 160 136 146 q 138 200 136 197 l 132 244 q 142 282 132 251 q 140 313 142 286 q 142 329 142 326 q 132 354 140 342 l 132 381 q 133 386 132 386 l 132 397 l 132 428 q 128 461 128 458 l 128 478 l 129 490 q 88 517 113 517 l 82 517 q 58 513 61 513 l 57 513 l 43 521 q 71 583 49 583 q 142 625 142 606 q 136 672 138 663 l 140 767 q 138 788 138 778 q 156 851 138 794 q 176 881 156 868 q 229 953 206 939 q 243 978 240 965 q 282 1001 263 1001 l 282 999 q 285 1001 285 999 l 294 999 l 336 1018 q 346 1022 336 1021 l 375 1022 q 394 1024 383 1022 z "},"g":{"ha":686,"x_min":35,"x_max":665,"o":"m 189 399 q 181 382 181 389 l 181 369 q 200 297 200 307 l 200 286 q 226 272 208 272 q 256 256 231 264 q 293 240 278 240 q 340 243 331 243 l 350 240 q 378 253 360 247 q 411 301 401 282 l 433 353 q 432 394 432 383 q 440 413 440 407 l 440 421 q 415 467 433 453 q 394 501 408 468 q 357 532 378 518 l 332 532 q 307 539 326 532 l 285 539 q 238 524 243 529 q 206 479 206 490 q 189 447 194 447 l 189 399 m 271 -162 l 275 -158 q 415 -150 371 -160 q 475 -136 443 -137 q 514 -94 485 -136 q 525 -57 525 -65 l 525 -49 l 504 -14 q 436 15 469 15 l 424 15 l 399 14 q 282 38 325 38 q 276 44 282 42 l 260 44 q 196 10 256 39 q 140 -44 149 -12 q 136 -61 136 -53 q 150 -103 136 -85 q 200 -146 156 -121 q 231 -150 200 -150 l 242 -150 q 260 -158 246 -150 l 264 -157 q 271 -162 265 -157 m 257 -200 l 256 -201 l 242 -201 l 181 -189 q 138 -192 154 -192 q 71 -158 124 -187 q 35 -96 35 -133 l 35 -78 q 49 -35 35 -58 q 92 28 57 -3 q 133 54 124 28 q 57 99 92 86 l 60 113 q 57 147 60 124 q 99 196 57 176 q 144 232 142 224 l 142 236 l 146 249 q 104 286 104 271 q 78 336 78 319 q 79 358 78 344 l 64 400 q 65 456 65 450 q 103 510 78 456 q 204 582 165 581 q 243 593 204 585 q 254 600 243 594 l 274 600 q 344 607 324 607 q 374 596 363 596 l 392 596 q 428 576 399 589 q 447 543 428 556 q 468 560 456 544 q 492 574 476 560 q 556 608 522 589 q 610 617 601 617 l 611 617 q 650 586 649 597 q 657 581 654 586 l 657 574 q 665 526 657 546 l 665 515 q 636 472 640 494 q 590 464 621 464 l 589 464 l 560 485 q 540 454 551 485 q 560 367 558 397 q 547 358 547 363 l 547 354 l 551 349 l 551 332 l 514 294 q 485 256 510 276 q 456 235 483 250 q 421 213 447 224 q 367 192 388 192 q 343 185 347 185 l 303 185 q 268 193 293 185 q 201 197 229 193 q 163 176 181 193 q 161 154 163 172 l 164 151 q 201 143 176 151 q 281 133 231 133 q 299 124 292 124 l 324 125 q 349 121 338 121 l 367 124 q 440 104 411 117 l 458 104 q 514 88 488 104 q 547 74 526 74 q 574 58 547 69 q 594 49 574 54 q 611 15 611 36 q 626 -26 626 -10 q 615 -32 619 -32 l 615 -44 l 607 -53 l 607 -79 q 589 -112 607 -86 q 561 -144 589 -135 q 526 -171 553 -147 q 468 -189 471 -189 q 446 -192 454 -192 l 424 -192 q 415 -189 418 -192 q 353 -204 386 -192 l 275 -204 q 267 -206 269 -204 q 257 -200 263 -206 z "},"h":{"ha":729,"x_min":15,"x_max":699,"o":"m 199 992 l 200 992 q 229 979 229 992 q 240 944 232 981 q 244 939 244 944 q 243 917 244 931 q 246 892 246 901 q 232 858 233 892 q 239 829 239 831 l 239 821 q 231 792 231 797 l 232 746 q 226 690 232 732 q 240 657 228 679 q 236 622 240 646 q 239 589 239 606 q 224 504 229 547 q 231 496 228 496 l 239 496 q 304 551 260 536 q 364 576 317 576 q 407 586 364 579 q 457 585 454 585 q 472 588 468 588 q 500 569 474 583 q 596 464 576 519 q 610 440 604 443 q 608 429 608 431 q 613 389 613 404 l 614 367 q 611 96 606 161 l 624 61 q 647 36 631 36 q 685 38 674 36 q 699 24 699 38 q 683 -19 696 -19 l 551 -15 q 458 -7 531 -14 l 456 -7 q 410 0 410 -15 q 422 29 407 19 l 483 33 q 499 96 499 81 q 504 135 504 122 l 501 275 l 501 279 q 510 315 501 292 q 497 372 508 340 q 499 422 499 401 q 454 479 485 432 q 425 493 446 489 q 406 514 410 514 q 306 488 311 506 q 289 464 306 485 q 258 465 268 465 l 254 465 q 233 378 238 465 l 233 332 q 226 288 233 315 q 229 275 226 285 q 225 206 229 268 q 238 122 226 136 q 232 97 238 118 l 232 81 q 254 47 239 74 l 260 47 q 293 54 282 54 q 318 35 301 54 q 313 -6 318 19 q 315 -11 314 -10 l 311 -14 q 267 0 304 -8 q 261 1 267 3 l 249 1 q 165 -8 207 -6 l 72 -6 l 58 -8 q 29 10 29 -8 l 28 31 q 88 58 28 54 q 118 128 118 81 q 114 208 117 147 q 131 288 113 249 l 131 293 l 125 308 q 126 336 125 311 q 124 364 126 350 q 125 417 125 388 l 124 429 q 133 467 124 432 l 133 475 q 122 510 122 501 q 126 546 126 539 l 125 588 q 121 603 121 601 l 121 631 q 131 649 121 640 q 114 729 115 717 q 125 794 114 753 q 81 890 103 890 q 39 896 51 896 l 26 896 q 15 915 19 896 q 53 942 15 926 q 97 953 64 949 q 168 981 150 981 q 199 992 171 981 z "},"i":{"ha":375,"x_min":53,"x_max":358,"o":"m 231 915 q 276 868 276 875 l 274 858 l 278 826 l 265 806 q 260 793 265 797 l 261 789 l 261 783 q 251 769 257 774 q 235 772 247 769 q 217 757 217 768 l 210 757 q 206 761 206 757 l 201 758 q 142 793 142 775 q 111 858 111 828 l 113 863 l 111 865 q 151 914 114 875 l 222 914 q 231 915 226 914 m 313 6 l 104 6 q 61 28 61 6 l 58 36 q 138 78 75 58 q 158 106 158 99 q 147 149 154 126 l 150 163 q 147 194 147 183 l 153 360 q 151 437 151 410 q 151 467 151 464 l 151 468 q 126 493 138 493 q 121 496 124 496 q 61 492 103 492 q 53 531 53 492 q 86 550 60 550 q 178 582 178 572 q 213 600 183 582 l 256 600 q 275 588 268 600 l 275 557 q 264 504 269 557 q 265 331 264 349 l 264 296 l 265 171 l 264 167 l 269 140 l 268 129 q 279 78 268 89 q 358 36 342 58 l 356 28 q 313 6 356 6 z "},"j":{"ha":369,"x_min":21,"x_max":278,"o":"m 246 619 q 260 604 246 617 q 267 569 260 593 q 264 565 267 565 q 267 503 267 524 l 267 467 q 268 447 267 458 q 256 417 256 429 q 267 399 256 411 q 272 357 267 389 q 264 328 264 346 q 271 299 264 317 q 268 251 268 261 q 276 239 268 249 l 276 224 q 268 204 276 213 l 268 201 q 272 179 268 199 q 271 156 272 164 q 272 129 272 143 l 272 100 q 268 71 272 93 q 275 15 275 50 q 260 -31 263 15 q 242 -71 257 -33 q 239 -74 239 -71 l 239 -94 q 142 -181 160 -181 q 118 -192 135 -181 l 93 -187 l 78 -189 q 25 -157 44 -189 q 26 -150 26 -153 q 21 -112 21 -128 q 33 -69 24 -69 q 74 -51 43 -51 l 76 -51 q 110 -86 92 -51 l 118 -86 q 150 -40 150 -51 q 153 -14 153 -31 q 149 26 153 -1 q 153 71 153 51 l 146 108 q 149 268 149 210 l 149 282 q 150 336 149 301 q 144 358 144 350 l 144 410 q 153 431 153 419 q 138 471 153 449 q 115 493 138 481 q 42 507 42 499 q 43 514 42 510 q 42 531 42 525 q 72 553 42 547 l 85 553 q 103 549 90 553 q 163 574 119 574 q 211 611 204 611 q 246 619 240 619 m 231 915 q 276 868 276 875 l 274 858 l 278 826 l 265 806 q 260 793 265 797 l 261 789 l 261 783 q 251 769 257 774 q 235 772 247 769 q 217 757 217 768 l 210 757 q 206 761 206 757 l 201 758 q 142 793 142 775 q 111 858 111 828 l 113 863 l 111 865 q 151 914 114 875 l 222 914 q 231 915 226 914 z "},"k":{"ha":729,"x_min":8,"x_max":688,"o":"m 161 979 q 167 978 163 979 q 199 979 193 979 q 229 961 229 979 l 229 957 q 221 915 229 940 l 221 906 q 225 890 221 890 q 222 882 225 889 q 225 844 222 878 q 218 826 218 831 q 221 779 221 799 q 226 756 226 763 l 226 750 q 218 700 226 728 l 221 679 q 217 628 217 636 q 222 607 221 607 q 218 547 218 588 q 222 531 218 546 l 222 525 l 217 504 l 217 463 q 222 417 217 444 q 207 318 217 349 q 222 314 214 314 l 233 314 q 292 349 278 326 q 369 411 331 390 q 419 471 418 460 q 436 493 432 482 q 390 513 436 504 q 344 535 349 529 q 347 540 344 538 l 344 551 q 365 569 353 569 q 429 565 397 565 q 475 569 460 565 q 486 568 479 568 q 563 576 546 576 q 649 560 649 569 l 649 531 q 624 508 629 508 q 601 510 610 510 l 539 485 q 521 472 526 485 q 454 421 510 472 q 408 390 451 421 q 389 375 400 390 l 389 367 q 407 322 394 322 q 471 247 471 254 q 504 208 490 208 q 529 176 529 193 q 568 132 536 132 q 610 86 586 96 q 647 65 646 72 l 651 65 q 661 69 657 69 q 688 56 678 69 l 688 39 q 665 14 688 25 q 660 15 663 14 q 619 14 636 14 q 554 19 554 14 l 550 18 q 486 19 506 19 l 461 14 l 407 18 q 393 15 399 15 q 382 28 383 28 q 393 61 383 61 l 408 61 q 450 88 422 61 q 453 96 453 92 l 453 111 q 413 153 413 150 q 382 208 413 165 q 332 265 351 238 q 300 297 307 297 q 292 299 292 299 q 247 265 274 299 q 208 244 208 249 l 208 240 q 211 214 208 226 q 207 185 207 196 l 214 128 l 217 113 q 213 86 217 103 q 225 74 213 82 q 239 71 235 71 q 275 61 239 68 l 301 61 q 315 40 315 61 q 318 28 318 38 q 297 11 318 21 q 288 14 290 11 q 226 11 250 11 l 183 11 q 133 15 138 15 l 99 15 q 40 28 40 15 q 32 47 32 31 l 32 57 q 39 64 32 60 l 65 64 q 110 92 110 78 q 121 104 113 92 l 121 125 q 117 171 121 135 l 129 218 l 129 243 q 124 278 124 269 l 124 315 q 119 365 119 363 q 124 481 119 421 q 115 496 118 496 q 117 538 117 524 l 117 540 q 115 561 117 551 q 119 597 119 586 q 115 692 119 610 l 117 696 q 115 704 115 703 q 124 783 115 761 q 101 843 117 843 q 74 876 82 858 l 64 878 l 44 878 q 28 874 43 878 q 13 897 19 878 q 8 901 8 897 l 8 921 q 43 944 8 943 q 81 953 43 950 q 90 958 81 957 l 110 957 q 161 979 161 971 z "},"l":{"ha":344,"x_min":19,"x_max":308,"o":"m 174 961 q 203 957 175 961 q 219 958 204 957 q 244 946 238 958 l 244 932 q 240 915 240 917 q 236 810 236 831 l 236 772 q 240 733 236 758 q 231 657 232 699 q 232 626 232 639 l 232 582 q 228 500 228 508 l 228 493 q 233 472 228 483 q 228 349 232 389 q 236 315 228 336 q 228 239 236 268 q 233 208 233 221 q 226 163 226 168 q 242 104 226 157 l 242 83 q 246 82 246 83 l 261 83 l 267 83 l 275 78 l 286 79 l 307 57 l 307 44 l 308 31 l 288 14 l 236 18 q 228 14 228 17 l 203 15 q 160 14 179 15 q 129 15 147 15 q 106 11 124 15 q 68 14 86 14 l 50 11 q 32 47 32 38 l 32 51 q 92 94 32 68 q 118 132 99 94 q 121 133 121 132 l 121 142 q 126 176 121 158 q 125 210 126 181 q 126 226 125 215 l 125 238 l 129 349 q 125 365 125 357 l 125 403 q 118 438 125 418 l 118 446 q 122 513 122 507 l 122 543 q 129 568 122 549 l 129 578 q 131 614 129 589 q 122 644 125 614 q 125 661 122 650 q 118 729 125 669 l 118 732 q 122 768 118 758 q 121 792 121 783 l 121 804 q 81 856 101 856 q 19 901 19 863 q 68 933 19 908 q 100 938 85 933 q 117 936 107 936 q 174 961 117 942 z "},"m":{"ha":1115,"x_min":46,"x_max":1076,"o":"m 810 617 l 821 617 q 865 601 846 617 q 929 572 924 572 l 949 549 q 968 507 963 524 q 981 456 981 507 l 981 438 q 974 368 981 424 l 976 353 q 974 306 974 328 q 993 283 993 285 q 978 197 985 267 q 976 182 978 185 l 978 178 q 976 176 978 176 q 981 126 981 150 q 969 96 981 108 l 969 89 q 974 85 971 85 l 1000 89 l 1015 88 q 1028 92 1022 92 l 1050 92 q 1076 39 1076 92 q 1057 15 1071 25 l 1054 15 q 1000 22 1042 15 l 997 22 q 968 14 974 14 l 953 14 q 931 24 946 14 q 922 26 922 24 l 890 14 l 846 14 q 806 18 810 18 l 788 18 q 760 49 771 18 q 825 78 760 69 q 861 151 861 96 l 857 206 q 861 328 861 285 q 849 403 861 388 q 853 429 853 411 q 838 472 853 464 q 763 528 801 528 q 751 533 763 532 l 749 533 q 697 519 697 528 q 636 475 690 519 q 606 464 610 464 q 611 426 606 456 q 608 371 608 376 q 611 332 608 367 l 608 313 q 611 290 611 301 l 604 264 q 611 217 606 232 q 606 176 608 186 l 611 142 q 608 124 608 133 l 608 119 q 667 78 621 78 q 706 50 683 78 l 706 31 q 685 10 696 15 q 589 15 671 11 l 576 14 q 547 15 561 15 l 543 15 q 507 14 521 15 q 469 15 490 15 q 422 14 460 15 q 394 33 418 14 q 457 76 394 76 q 496 122 496 115 q 500 267 496 147 q 499 338 500 279 l 500 342 q 496 371 496 353 l 496 444 q 468 494 472 490 q 375 531 436 531 l 371 531 q 313 515 332 518 q 297 507 313 508 q 233 444 233 457 q 232 422 233 431 q 239 329 235 339 q 233 301 233 307 q 236 260 236 272 q 233 239 236 257 l 243 204 l 243 193 q 240 190 243 190 l 243 186 l 243 171 q 247 147 247 150 l 247 146 q 243 128 247 143 l 243 111 q 278 83 243 86 q 297 76 278 78 l 322 76 q 340 50 340 61 q 325 10 340 10 l 325 7 q 251 18 261 18 l 208 18 q 108 4 194 8 l 97 4 q 54 11 90 4 l 50 11 q 46 15 46 11 l 46 57 q 100 72 49 61 q 128 93 118 90 l 126 104 l 126 158 q 135 186 126 164 l 135 190 q 128 215 135 199 q 131 224 128 219 q 124 303 124 269 q 128 371 124 315 q 111 481 124 481 q 92 515 101 515 l 61 508 q 49 528 49 524 q 63 563 49 563 q 132 582 94 582 q 178 604 171 597 q 181 607 178 607 l 190 607 q 210 608 199 607 q 229 569 229 608 q 233 558 233 569 q 232 531 232 540 l 233 515 l 240 515 l 256 519 l 256 531 q 294 561 263 546 q 347 589 314 589 q 371 601 347 593 q 415 611 371 608 q 429 607 422 607 q 499 604 488 604 q 539 578 506 594 q 581 518 568 540 l 592 515 q 631 550 596 515 q 679 593 635 550 q 713 604 688 593 q 728 613 718 604 l 758 613 q 810 617 807 617 z "},"n":{"ha":735,"x_min":38,"x_max":738,"o":"m 229 629 l 246 629 q 254 613 251 629 l 254 600 q 253 597 254 597 q 271 554 257 554 q 288 553 286 553 q 360 597 288 564 l 413 614 l 432 614 q 478 618 461 614 l 540 601 q 583 579 560 582 q 608 533 592 576 q 638 499 636 533 l 650 414 q 647 397 647 399 q 658 308 651 324 q 650 257 658 301 q 651 232 650 253 q 642 140 646 210 q 668 68 642 119 q 731 31 738 75 l 733 18 q 683 4 722 4 q 674 -1 683 1 l 647 3 q 614 4 618 4 l 596 3 q 549 6 571 6 l 538 0 l 536 0 q 482 10 521 6 l 482 13 q 449 8 474 8 l 440 8 q 419 26 421 24 l 419 35 q 440 71 419 61 q 482 67 476 67 q 513 97 513 90 q 521 144 521 132 l 521 157 q 517 194 521 174 q 521 233 521 224 q 517 263 517 258 q 521 289 521 282 l 521 317 q 524 338 521 326 q 513 418 521 375 l 513 456 q 481 507 501 486 q 415 532 433 532 l 400 532 q 383 536 385 536 q 343 525 368 529 q 319 513 343 519 q 263 464 304 493 q 250 435 263 461 q 254 411 250 431 q 253 363 254 410 q 258 338 258 343 l 258 335 q 246 296 246 318 l 250 189 l 249 176 l 253 143 q 249 119 249 135 l 249 115 q 267 92 249 108 q 304 67 279 67 l 325 68 q 350 46 331 68 l 350 35 q 315 6 350 33 q 267 17 285 8 q 182 14 207 14 q 89 17 158 14 q 83 8 89 8 l 75 8 q 47 31 63 8 l 47 64 q 64 75 53 75 l 79 75 q 81 72 81 75 q 136 110 136 88 l 136 153 q 135 164 136 160 q 136 178 136 172 q 140 364 136 206 q 139 406 140 382 q 140 453 140 419 l 140 460 q 113 511 125 511 q 60 524 103 511 q 38 557 38 524 q 71 596 38 585 q 79 601 71 601 q 164 618 164 607 l 178 618 q 229 629 208 622 z "},"o":{"ha":686,"x_min":46,"x_max":638,"o":"m 331 621 q 401 615 390 619 q 408 618 404 618 l 413 611 l 426 614 q 453 590 449 614 l 471 590 q 511 556 481 590 q 549 538 525 544 q 614 428 590 499 q 624 408 621 428 q 638 390 638 394 q 632 342 632 361 q 638 322 638 332 l 638 308 q 622 272 629 272 l 622 253 q 621 221 622 242 q 622 214 622 218 q 586 167 619 214 q 569 154 574 163 q 572 151 569 151 l 569 142 l 572 128 q 535 96 564 128 q 475 51 524 96 q 446 35 456 44 q 417 39 421 39 q 388 15 417 35 q 358 4 388 4 q 260 19 278 19 q 206 35 260 26 l 201 35 l 192 33 q 160 74 192 42 q 122 115 140 74 q 83 165 97 138 q 74 174 74 171 l 74 185 l 75 199 q 57 239 65 199 q 54 243 54 239 l 54 244 q 46 363 46 344 q 71 428 60 418 q 65 440 67 428 q 94 489 74 442 q 147 551 126 535 q 168 579 150 551 q 207 589 182 585 q 232 600 207 597 q 251 608 232 606 q 260 615 251 611 l 279 615 q 331 621 297 615 m 211 521 l 211 508 q 186 463 199 501 q 174 382 183 425 q 169 379 169 382 l 169 372 q 174 350 169 363 l 164 311 q 174 254 171 264 q 179 239 179 247 l 179 175 q 199 151 193 168 q 206 135 203 151 q 246 96 208 135 q 286 67 276 67 q 315 58 313 58 q 347 63 325 58 q 368 57 356 58 q 425 79 411 65 q 451 117 429 97 q 476 150 451 131 q 490 199 490 175 q 508 253 499 201 q 514 260 514 253 q 506 321 514 290 l 506 350 q 510 382 507 382 q 499 394 510 385 q 489 414 499 406 l 489 425 q 469 478 489 468 q 399 569 460 501 l 308 569 q 271 560 271 567 q 251 550 271 554 q 238 540 251 547 q 211 521 238 529 z "},"p":{"ha":768,"x_min":0,"x_max":697,"o":"m 383 625 q 443 617 419 624 l 444 617 q 476 619 457 617 q 521 606 514 606 l 531 607 q 581 567 538 592 q 629 525 610 525 q 651 499 651 510 q 643 481 643 482 q 675 449 643 476 l 675 417 q 683 389 683 394 l 683 358 q 689 354 683 354 q 694 357 693 357 l 697 353 l 697 351 q 685 301 685 321 l 685 294 q 689 279 689 281 l 689 275 q 663 217 679 269 q 667 194 665 213 q 656 167 656 171 l 657 158 q 608 96 633 133 q 519 31 553 39 q 476 18 519 25 q 431 4 472 14 q 383 8 404 8 q 340 7 376 8 q 285 36 333 7 l 243 50 q 231 18 235 50 q 231 -68 231 13 q 263 -161 231 -149 l 282 -164 q 326 -160 290 -164 q 361 -206 361 -189 q 347 -215 349 -215 q 268 -208 307 -214 q 254 -215 265 -208 l 240 -215 q 225 -212 232 -215 q 218 -214 222 -212 l 204 -212 q 154 -215 164 -215 q 100 -212 117 -212 l 99 -212 q 64 -226 90 -219 l 44 -226 q 17 -201 21 -226 l 17 -197 l 53 -164 q 78 -169 63 -169 l 99 -169 q 131 -75 131 -147 l 131 -50 q 126 -11 131 -46 l 126 46 q 132 61 126 53 l 132 75 q 128 90 132 76 q 121 163 128 133 l 121 172 q 118 211 121 189 q 128 244 128 238 q 125 276 125 268 l 125 293 q 126 335 125 308 q 117 353 124 346 l 117 367 q 125 419 125 403 q 122 449 125 424 l 125 474 q 121 501 121 488 l 121 506 q 125 521 121 507 l 118 525 q 99 519 117 525 q 58 524 88 519 q 40 507 58 519 l 21 507 q 13 533 14 507 q 0 551 10 533 q 35 575 0 571 q 57 583 35 581 q 72 581 58 583 q 164 615 81 581 q 218 624 206 624 q 232 567 226 613 l 236 565 l 265 565 q 299 588 279 582 q 376 619 358 619 q 383 625 376 622 m 331 556 q 300 538 331 547 q 239 465 242 481 q 232 463 236 465 l 235 439 q 232 365 235 422 q 236 340 236 351 l 236 326 q 231 279 236 311 q 232 221 231 272 q 225 165 225 178 q 244 125 225 142 q 289 85 260 96 q 321 71 299 78 q 325 67 321 67 l 344 67 q 347 64 347 67 q 349 67 349 64 q 381 57 357 67 q 453 76 413 57 l 463 75 q 507 121 463 79 q 544 229 544 200 l 544 275 q 551 313 544 286 l 551 315 q 549 339 551 328 q 551 357 551 350 q 538 433 542 433 q 540 453 540 451 q 539 456 539 453 l 535 453 l 531 453 q 522 474 528 453 q 499 515 511 488 q 417 551 438 551 q 403 556 417 554 q 354 553 383 556 q 331 556 340 556 z "},"q":{"ha":728,"x_min":32,"x_max":667,"o":"m 608 653 q 635 619 635 646 q 636 596 636 608 q 635 544 635 557 q 636 536 635 543 q 625 440 626 481 q 622 439 622 440 q 625 399 625 411 q 621 350 621 360 l 621 342 q 636 321 626 328 q 621 244 629 244 l 621 240 q 632 222 621 232 q 631 174 631 185 q 636 139 635 160 q 635 99 635 117 l 635 78 q 632 76 635 76 q 639 60 632 75 q 636 14 636 22 q 654 -118 636 -96 q 667 -139 654 -126 q 631 -190 667 -171 q 583 -201 625 -190 l 582 -201 q 513 -207 539 -201 l 458 -207 q 418 -185 451 -194 l 415 -175 l 415 -172 q 450 -146 440 -146 l 476 -146 q 508 -100 496 -146 q 515 -93 513 -100 q 519 -57 515 -68 q 508 -29 508 -39 l 519 63 q 497 81 519 75 q 450 44 492 81 q 408 22 444 44 q 349 6 381 10 q 274 -3 349 0 q 206 18 247 -3 l 175 18 q 72 99 119 50 q 39 178 56 132 q 32 258 33 178 l 32 261 q 50 376 32 343 l 50 396 q 64 439 57 403 q 126 524 100 504 q 193 568 151 553 q 274 617 215 590 q 308 621 307 621 l 333 621 q 360 619 346 621 q 379 622 379 621 l 390 621 l 410 621 q 450 596 443 606 l 454 596 l 479 599 q 524 582 479 592 q 533 574 528 574 q 565 604 557 574 q 594 643 576 624 q 608 653 596 649 m 240 525 l 229 528 l 219 528 q 188 481 208 525 q 136 396 157 444 q 129 386 129 394 l 136 361 l 136 358 q 135 321 136 340 q 140 294 140 300 l 140 258 q 171 231 142 256 l 169 210 l 169 206 q 197 168 174 185 q 215 143 197 154 q 289 97 226 129 l 290 97 q 369 93 314 97 q 435 108 410 93 q 497 157 458 108 q 515 183 510 179 l 515 193 q 507 204 508 204 l 508 218 q 501 365 506 365 q 508 461 501 399 l 508 463 q 428 524 469 507 q 393 540 421 540 q 349 551 378 551 l 335 551 q 300 558 315 558 q 240 525 243 536 z "},"r":{"ha":557,"x_min":53,"x_max":571,"o":"m 454 650 l 465 647 l 471 647 q 526 639 496 647 q 535 642 531 642 q 571 601 536 633 q 567 583 567 589 l 567 563 q 571 529 567 560 q 524 492 568 511 l 522 492 q 501 493 513 492 q 488 492 493 492 q 433 525 483 492 l 414 526 q 356 499 356 513 q 328 460 356 496 q 317 435 317 440 l 317 426 q 320 324 322 383 q 322 258 318 264 q 321 233 322 239 q 322 214 322 217 l 321 189 q 331 175 321 188 l 331 139 q 340 111 339 132 q 381 94 354 101 l 386 94 q 394 96 392 94 q 403 94 399 94 q 442 93 438 93 l 456 76 l 456 32 q 429 22 456 25 q 376 32 392 32 l 365 32 q 324 21 343 21 l 313 21 l 300 24 q 289 21 296 21 q 283 24 283 21 l 272 21 q 231 24 254 21 q 136 14 193 11 q 110 31 110 25 q 94 49 94 39 l 97 60 q 94 68 94 63 l 136 90 q 183 111 138 93 q 203 146 203 128 l 207 150 q 204 196 204 181 l 204 204 q 219 346 204 240 q 207 360 207 349 q 200 386 207 364 q 199 447 200 401 q 204 467 204 457 l 204 475 l 158 504 l 126 504 q 106 503 115 504 q 53 529 76 503 l 53 553 q 89 592 89 589 q 131 585 121 585 q 188 608 143 593 l 192 608 l 213 606 q 271 621 213 621 q 281 622 271 622 q 304 604 289 622 q 293 538 304 585 q 310 521 293 521 q 322 542 315 521 q 394 608 375 600 q 449 639 400 622 q 454 650 449 643 z "},"s":{"ha":557,"x_min":56,"x_max":519,"o":"m 313 626 l 342 610 q 419 622 382 610 l 426 622 l 439 619 q 444 622 442 622 q 469 603 450 621 l 469 588 q 478 546 469 572 q 471 526 471 532 l 471 517 q 494 432 482 517 q 449 394 482 394 q 419 385 435 394 q 406 419 406 388 q 385 471 386 471 q 364 508 385 492 q 326 533 342 533 q 293 564 319 533 q 236 568 283 564 q 215 554 228 568 q 182 531 189 538 l 156 500 q 194 436 156 450 q 267 408 236 408 q 346 381 346 390 q 381 357 350 381 q 478 306 471 314 q 515 258 515 275 q 519 226 519 239 l 519 215 q 517 199 519 206 q 519 182 519 190 l 519 179 q 492 103 492 113 q 431 43 472 90 q 394 13 422 43 q 356 4 381 13 q 300 -4 308 -4 q 246 8 246 3 q 186 26 200 26 q 161 25 182 26 q 135 26 143 26 q 114 13 129 13 q 110 4 114 8 l 89 6 l 81 6 l 64 18 l 67 32 l 67 72 q 56 208 67 83 q 72 229 56 217 l 107 229 q 132 203 110 229 l 132 190 l 128 183 l 128 182 l 131 182 l 136 186 q 165 149 151 158 q 228 97 201 107 l 263 74 l 288 74 q 389 107 328 74 q 415 118 415 114 l 415 122 q 399 167 410 126 q 394 171 394 167 l 394 203 q 317 254 361 218 q 275 267 292 267 l 246 267 q 188 281 221 267 q 103 340 103 319 q 68 386 103 356 q 67 467 67 447 q 135 581 97 557 q 192 618 147 597 q 200 624 192 619 l 203 624 q 229 619 211 624 q 249 624 243 624 l 289 624 q 313 626 299 624 z "},"t":{"ha":457,"x_min":24,"x_max":428,"o":"m 225 813 q 254 779 242 813 q 258 775 258 779 q 251 622 251 651 q 267 618 260 618 l 297 624 l 297 622 l 301 624 l 315 624 q 372 632 319 624 l 394 632 q 421 579 404 628 q 428 572 425 579 l 428 556 q 399 538 415 538 l 394 538 q 315 543 333 543 l 307 542 l 271 551 q 247 504 260 551 l 247 494 q 246 429 247 468 q 256 407 256 413 l 256 390 q 250 339 256 378 q 263 292 250 310 l 263 279 q 256 260 263 275 q 250 182 256 211 l 250 163 q 272 124 257 154 q 296 107 286 111 q 340 124 314 107 q 386 167 343 124 l 413 171 q 424 154 414 168 l 424 149 q 407 119 407 129 q 390 81 401 119 q 386 74 389 81 q 389 65 389 71 q 364 40 381 54 l 343 43 q 307 25 343 35 q 276 13 276 18 l 267 14 l 200 14 q 158 31 200 21 q 142 56 154 33 q 121 106 128 56 q 119 114 119 106 l 119 203 q 125 250 119 222 l 121 356 q 129 478 121 368 l 125 503 q 129 533 129 528 q 113 546 125 546 q 60 531 78 531 l 49 531 q 24 583 24 554 q 43 607 24 594 q 61 626 44 607 l 69 626 q 121 660 99 626 q 165 724 151 685 q 179 753 165 728 q 178 757 179 757 l 179 771 l 179 793 q 225 813 179 807 z "},"u":{"ha":725,"x_min":39,"x_max":699,"o":"m 213 618 q 257 601 257 618 q 254 571 254 581 l 254 518 q 242 504 246 504 l 244 490 l 244 478 q 233 368 240 392 q 240 308 236 318 q 233 235 236 276 q 250 150 239 150 q 297 122 265 131 q 306 114 297 118 l 308 114 q 369 118 346 114 q 397 114 379 114 q 482 178 432 121 q 486 208 483 207 q 483 226 483 219 q 500 306 488 276 q 503 319 503 308 q 488 343 488 335 q 496 407 494 369 l 488 436 l 490 449 l 490 453 q 443 531 490 531 l 428 531 l 403 529 q 390 556 390 551 l 390 558 q 463 589 390 582 q 488 601 463 592 q 511 599 507 599 q 542 614 522 599 l 546 614 q 601 606 601 614 l 601 589 q 597 563 601 581 q 604 522 600 544 q 600 499 600 508 l 600 454 q 601 438 600 446 q 600 429 601 438 q 601 331 601 369 l 601 328 q 592 314 592 319 q 596 258 596 274 l 596 254 q 579 239 596 251 l 579 229 q 597 194 597 218 q 592 175 592 183 q 606 115 592 115 q 622 106 607 106 q 651 119 638 106 l 669 119 q 699 89 699 108 l 699 76 q 681 35 692 35 q 674 36 678 35 l 639 32 q 601 36 615 36 l 589 35 l 589 36 q 583 35 585 35 q 533 36 558 35 q 499 32 526 36 q 479 61 479 51 q 496 97 479 79 l 496 99 q 490 106 496 101 q 458 89 458 106 q 372 32 431 56 q 363 25 371 28 q 347 26 354 26 q 318 17 332 17 l 300 18 l 279 17 q 215 39 235 38 q 192 53 213 44 q 135 115 156 72 q 122 138 128 133 q 126 229 126 185 l 126 243 q 122 276 122 274 l 122 279 l 131 347 q 128 381 128 368 q 140 442 140 426 l 140 450 q 131 508 132 483 q 103 521 113 521 q 56 538 103 528 q 39 551 39 549 l 39 560 q 93 593 54 593 q 208 614 183 606 q 213 618 210 618 z "},"v":{"ha":707,"x_min":11,"x_max":685,"o":"m 43 613 l 51 613 q 85 594 61 613 l 96 597 l 167 597 q 211 589 185 597 l 214 589 q 250 594 226 589 l 263 593 l 279 593 q 288 594 283 593 q 311 581 311 585 l 311 578 q 304 565 304 569 q 307 549 307 554 q 268 524 281 528 q 226 528 246 528 q 222 508 222 519 q 250 472 222 506 q 263 454 256 458 q 260 444 263 453 q 307 335 260 431 l 304 325 q 315 317 314 321 l 315 297 q 324 286 322 286 l 321 276 l 321 269 q 344 247 344 249 l 343 233 q 357 183 349 233 q 372 176 365 176 l 374 176 q 432 289 388 186 q 442 325 442 289 l 442 339 q 465 383 442 346 l 463 394 q 497 456 476 406 q 499 471 497 468 l 489 515 q 490 521 490 519 q 475 533 476 533 l 467 533 q 401 557 444 533 l 400 561 l 400 581 q 463 593 400 589 q 467 594 463 594 q 485 593 479 593 q 510 599 510 599 l 524 597 q 621 594 542 597 q 649 603 640 603 q 682 569 682 589 l 685 560 q 643 519 681 560 l 632 519 q 629 521 629 519 q 556 431 588 506 q 522 353 550 431 q 506 310 514 318 q 467 253 488 272 l 450 192 q 442 176 449 192 q 444 171 444 172 q 381 36 421 126 q 357 0 363 22 l 353 0 l 347 4 q 331 1 335 1 q 307 25 319 1 l 307 54 q 286 89 307 60 q 275 114 275 111 l 275 139 q 242 164 264 151 l 238 171 q 242 189 238 176 q 219 219 231 192 l 218 219 q 226 247 219 240 q 210 256 226 251 q 189 289 210 257 q 157 383 189 303 q 106 489 157 392 q 72 521 101 489 q 11 553 19 539 l 11 565 q 14 585 11 574 q 11 593 11 588 q 43 613 31 613 z "},"w":{"ha":983,"x_min":21,"x_max":969,"o":"m 101 607 q 161 599 115 607 q 258 601 240 601 q 265 599 261 601 q 274 601 269 601 q 297 590 285 601 q 278 554 297 564 q 238 558 253 558 l 213 557 q 210 525 203 550 q 232 490 217 525 q 229 474 229 479 q 265 381 242 453 q 272 349 269 381 q 297 296 275 349 q 310 279 310 282 q 308 253 308 257 q 321 221 318 236 q 335 203 325 221 l 346 197 q 354 217 354 215 q 353 225 353 221 q 365 251 360 233 q 397 308 385 289 q 425 372 397 313 q 450 444 425 397 q 461 468 461 464 l 461 469 q 454 504 461 488 q 457 525 457 522 q 439 538 451 538 l 426 535 q 346 581 350 565 l 346 582 l 375 606 l 417 606 q 439 594 424 606 q 526 601 521 597 q 569 599 558 599 q 614 601 606 601 q 632 574 632 601 l 636 558 q 622 544 633 558 q 582 553 603 546 q 551 538 551 546 l 551 521 q 563 486 563 511 q 575 464 564 486 l 575 429 q 603 378 594 388 l 603 360 q 643 279 611 333 q 664 219 664 231 l 668 217 q 704 260 686 217 q 722 296 704 283 q 747 368 740 338 q 789 497 789 440 q 788 501 789 501 q 768 521 783 501 q 704 554 757 533 q 699 578 700 560 q 731 606 699 606 l 740 603 l 767 606 q 864 599 833 603 q 883 603 878 603 l 893 603 q 944 586 940 592 q 969 567 956 575 l 968 557 l 968 540 q 928 521 958 521 q 901 522 924 521 q 857 469 900 507 q 831 404 857 464 q 789 306 813 342 q 772 281 772 285 q 764 244 772 278 q 724 156 764 233 q 692 76 711 113 q 679 47 692 72 q 682 39 682 43 q 654 14 682 38 l 643 14 q 610 40 624 14 q 574 164 610 89 q 554 215 574 169 q 543 239 544 225 q 546 260 546 250 q 528 275 536 260 l 539 296 q 514 346 529 307 q 479 392 493 392 l 478 392 q 450 346 475 392 q 447 340 447 346 l 447 315 q 425 260 425 282 q 410 247 418 260 l 410 236 l 417 228 q 389 196 401 218 l 390 192 q 357 107 390 158 q 344 47 344 72 q 297 19 328 19 q 269 51 276 29 l 263 60 l 263 83 q 249 113 263 89 q 217 203 249 147 q 208 249 208 239 l 210 253 q 181 317 199 268 q 153 400 181 324 q 136 422 149 422 l 138 438 l 138 446 q 113 510 138 451 q 76 535 113 515 q 68 542 76 539 q 38 540 50 540 l 33 540 q 21 554 31 540 l 21 578 q 49 601 21 599 q 83 597 57 601 q 101 607 97 607 z "},"x":{"ha":728,"x_min":19,"x_max":710,"o":"m 443 618 q 449 617 449 618 l 460 618 l 472 618 q 489 610 481 610 q 507 613 496 610 q 529 610 521 610 q 569 614 561 614 q 594 608 572 614 q 625 617 606 608 q 685 601 660 610 q 699 560 699 588 q 608 525 699 542 q 536 469 606 525 q 494 415 521 467 q 432 357 446 368 q 451 300 432 311 q 553 192 472 279 q 582 160 572 186 q 618 126 596 140 q 681 93 618 117 q 710 64 693 93 q 707 58 710 61 l 710 46 q 683 14 710 33 q 608 17 636 17 l 600 17 q 565 25 568 25 q 529 18 535 21 q 497 26 507 26 q 460 14 474 26 l 457 14 q 397 39 443 14 l 397 54 l 396 68 q 415 85 397 68 l 419 85 q 440 81 424 85 q 457 93 449 82 q 456 124 456 114 l 456 136 q 383 225 406 183 q 350 246 369 239 l 333 246 q 325 249 329 246 q 283 199 283 213 q 242 157 283 197 q 244 151 242 151 q 240 128 242 132 q 300 81 251 81 q 317 67 317 78 q 294 25 304 25 l 283 22 l 250 22 q 232 31 239 31 q 201 22 217 22 q 174 29 178 29 q 144 25 151 25 q 118 29 143 25 l 114 26 l 110 29 l 51 22 q 21 60 21 43 q 42 82 21 72 l 54 81 q 81 101 67 85 q 135 119 92 101 q 140 118 139 118 q 199 188 174 167 q 253 257 232 217 q 292 301 292 278 l 294 317 q 246 385 272 367 q 185 458 226 400 q 151 492 185 468 q 96 536 126 536 q 25 563 38 546 q 19 568 22 563 l 19 588 q 54 610 19 594 l 136 610 q 169 601 168 601 l 172 601 l 242 610 q 311 608 278 608 l 321 608 q 347 596 339 608 q 346 572 347 588 l 347 568 q 300 546 340 546 q 263 515 263 546 q 303 479 303 496 q 343 424 315 444 q 364 403 343 421 l 379 403 q 440 461 390 411 q 457 488 457 472 q 465 494 465 488 l 465 515 q 422 550 451 538 q 406 571 406 560 l 406 596 q 436 613 421 613 q 443 618 436 615 z "},"y":{"ha":715,"x_min":24,"x_max":676,"o":"m 636 618 q 671 583 671 610 q 676 560 671 575 q 663 518 676 528 q 646 507 657 507 l 631 507 q 599 490 626 503 q 571 439 588 482 q 531 350 550 415 l 514 318 l 514 314 q 478 225 514 275 q 453 196 478 218 q 422 96 453 186 q 407 65 422 82 q 399 56 407 61 l 401 44 q 374 -12 401 39 q 338 -97 358 -71 q 278 -165 338 -126 q 246 -182 274 -165 q 181 -204 218 -204 q 160 -208 181 -208 l 133 -208 q 88 -174 128 -208 q 67 -144 67 -156 l 68 -140 q 67 -132 67 -132 q 71 -101 71 -115 q 67 -87 67 -87 q 115 -65 108 -76 q 121 -60 115 -62 l 132 -60 q 153 -64 136 -60 l 183 -61 q 214 -82 183 -71 q 221 -92 218 -92 l 228 -92 q 276 -65 260 -92 q 313 -4 286 -64 q 318 3 315 -4 l 318 39 l 308 53 l 308 76 q 281 132 283 132 q 242 221 247 190 q 213 261 213 243 l 192 299 q 183 331 188 308 q 117 486 168 381 q 44 538 83 526 q 25 571 25 544 q 24 588 24 579 q 56 611 31 611 l 85 611 q 144 596 114 596 q 218 592 204 592 q 228 599 218 596 q 254 596 229 599 q 281 600 276 600 q 322 575 294 600 l 322 554 q 282 528 296 528 l 278 528 l 265 531 q 233 490 233 519 l 233 482 q 282 403 265 424 q 308 329 296 369 q 344 244 329 293 l 385 174 q 393 172 388 172 l 397 172 q 403 189 401 172 q 401 196 401 193 l 422 244 q 433 274 422 251 q 453 301 433 279 q 478 390 453 339 q 493 403 478 401 q 490 431 493 404 q 503 463 490 451 l 503 475 q 461 547 478 544 q 431 542 433 542 l 410 542 q 390 568 390 558 l 390 574 q 414 596 390 596 l 418 596 q 439 590 429 596 q 494 592 475 592 l 497 592 q 531 604 522 604 l 636 618 z "},"z":{"ha":561,"x_min":60,"x_max":507,"o":"m 290 611 q 344 608 317 608 q 358 601 347 601 l 360 601 q 454 611 442 611 l 488 611 q 504 585 504 601 q 507 550 507 575 q 465 501 476 525 q 419 451 461 483 q 375 396 419 435 q 321 313 360 358 l 281 265 q 215 172 269 235 q 192 133 192 138 l 192 131 q 239 115 201 115 q 276 122 249 115 l 299 122 q 325 115 306 115 l 360 115 q 383 114 369 115 q 404 138 392 114 q 439 186 429 158 q 469 213 449 213 q 497 217 476 213 l 500 213 l 500 194 q 478 118 500 171 q 451 54 478 103 q 450 43 451 43 l 451 39 q 431 4 451 4 l 375 4 q 367 1 371 4 q 296 8 346 6 l 269 4 l 147 8 q 114 6 128 6 q 86 22 93 15 l 64 22 q 60 26 60 22 l 60 47 l 104 118 q 161 193 143 167 q 200 254 183 207 q 276 353 219 285 q 303 392 276 368 l 340 440 q 342 456 340 447 q 239 486 322 486 q 213 479 225 486 l 192 482 l 178 482 q 140 442 140 482 q 97 389 128 389 q 71 388 86 388 q 63 410 63 397 l 63 467 q 82 532 82 511 l 82 563 q 93 571 86 571 l 93 585 q 110 601 93 588 q 147 600 118 601 q 176 608 153 600 l 178 608 q 207 601 183 608 q 233 607 219 601 l 246 604 l 253 604 q 290 611 279 611 z "},"":{"ha":1389,"x_min":165,"x_max":1232,"o":"m 636 -137 q 599 -97 599 -135 q 615 358 614 61 q 585 389 614 389 l 321 390 q 283 351 286 390 l 288 296 q 186 257 285 257 q 165 275 165 257 l 165 279 q 179 621 174 344 q 176 733 178 707 q 174 804 174 758 q 203 835 174 833 q 290 775 225 836 l 590 772 q 622 792 618 772 l 624 829 l 622 1007 q 615 1083 622 1051 q 635 1111 615 1111 q 758 1085 717 1110 q 768 1068 768 1078 q 750 1039 768 1056 q 725 967 725 1011 q 721 806 721 967 q 747 772 724 772 l 1018 775 q 1049 808 1035 779 q 1089 838 1063 838 q 1224 772 1158 826 q 1232 749 1232 760 q 1203 711 1232 729 q 1169 653 1175 693 l 1192 403 q 1199 340 1199 367 q 1194 306 1199 319 q 1083 264 1176 264 q 1051 290 1051 264 q 1057 358 1057 338 q 1031 388 1057 388 l 754 390 q 728 364 729 390 l 728 314 q 736 -40 728 140 l 738 -93 q 636 -137 735 -136 m 1042 422 q 1058 435 1057 422 l 1057 699 q 1033 732 1057 722 q 996 735 1026 735 l 750 732 q 725 696 725 728 l 725 463 q 761 425 726 425 l 1042 422 m 583 428 q 622 467 622 428 l 621 696 q 599 731 621 729 l 311 735 q 285 707 285 735 l 283 456 q 315 428 283 428 l 583 428 z "},"":{"ha":1389,"x_min":69,"x_max":1322,"o":"m 776 -136 q 750 -118 760 -136 q 767 171 765 81 q 732 185 751 185 l 701 181 q 582 172 597 176 q 535 194 536 172 q 558 224 535 215 q 749 217 694 217 q 771 240 765 222 q 767 503 767 269 l 764 565 q 749 596 758 596 l 742 596 q 697 531 719 558 q 571 344 650 429 q 411 189 438 197 l 397 189 q 389 204 389 197 q 394 218 389 211 q 544 413 489 299 q 694 701 675 619 l 704 746 l 606 744 q 524 746 561 744 q 465 743 483 743 q 433 768 433 746 q 461 789 433 789 l 490 786 q 758 782 519 782 l 763 836 l 750 1018 q 740 1060 750 1036 q 738 1075 738 1068 q 756 1107 738 1092 q 899 1057 882 1107 l 899 1056 q 861 992 894 1056 q 850 892 853 963 q 847 792 847 821 q 851 778 851 785 q 1032 785 881 778 q 1114 871 1058 788 l 1129 885 l 1151 885 q 1258 785 1207 851 l 1258 753 q 1250 743 1258 747 q 1079 744 1117 743 l 901 743 l 890 738 q 969 554 890 711 q 1303 272 1149 315 q 1322 253 1322 267 q 1318 238 1322 246 q 1243 196 1317 228 l 1197 161 l 1188 161 q 1011 357 1113 206 q 932 526 939 493 q 876 671 897 588 q 872 679 872 671 q 853 622 864 679 q 847 496 851 571 l 851 293 q 858 222 858 235 q 879 213 861 213 q 918 228 906 213 q 974 288 926 228 l 1004 288 q 1076 203 1061 250 q 1067 169 1076 185 l 1057 168 q 1033 174 1047 168 q 860 185 1017 185 q 851 158 851 169 q 863 13 860 79 q 871 -103 864 -37 q 776 -136 851 -136 m 271 -136 q 213 -94 213 -136 q 224 -51 224 -79 l 228 -19 l 240 154 l 240 628 l 229 628 q 158 543 193 593 q 111 468 135 524 l 101 461 l 81 461 q 69 475 78 461 l 69 496 l 106 539 q 185 669 139 585 q 331 1038 279 847 q 353 1103 335 1103 l 364 1103 q 490 1010 456 1061 q 411 939 490 1001 q 332 803 408 910 l 332 786 q 349 772 340 786 l 349 753 q 321 717 338 736 l 317 242 l 324 90 l 329 -110 q 274 -133 329 -121 q 271 -136 274 -136 z "},"":{"ha":1389,"x_min":76,"x_max":1333,"o":"m 181 618 l 174 618 q 100 656 121 618 q 88 704 88 682 q 138 779 88 750 q 219 892 219 833 l 215 958 q 238 976 225 976 q 264 961 250 976 q 288 903 283 929 l 318 899 l 628 903 l 629 960 l 622 1107 l 636 1121 q 764 1081 763 1113 l 767 1047 q 742 964 743 1015 q 744 924 744 935 q 746 901 744 913 l 1078 906 l 1115 951 q 1150 979 1128 979 q 1171 974 1160 979 q 1299 851 1264 917 l 1301 826 q 1197 799 1275 801 q 1106 700 1163 760 q 1074 690 1085 690 q 1056 711 1056 690 l 1056 715 q 1108 821 1106 774 q 1088 869 1107 846 l 289 858 l 283 778 q 250 675 281 725 q 181 618 228 636 m 636 -133 q 596 -99 600 -133 q 510 -50 592 -56 l 461 -51 q 442 -29 456 -51 l 440 -15 q 453 -4 440 -6 q 474 -8 464 -4 l 528 -8 l 551 -10 q 622 36 619 -10 q 629 249 629 138 l 629 313 l 618 317 l 200 306 l 122 296 q 78 336 79 297 l 76 353 l 99 363 q 376 353 267 353 q 613 357 492 353 q 625 374 625 358 l 625 500 q 621 538 621 522 q 639 567 621 567 q 669 554 647 567 q 693 544 679 554 q 743 592 722 571 q 769 658 769 639 l 769 660 q 421 651 551 656 q 376 644 386 644 q 338 665 351 644 q 356 700 338 686 q 417 699 382 699 l 725 700 q 761 704 750 704 q 825 756 789 717 l 835 757 q 954 638 949 725 q 872 617 940 619 q 728 528 781 551 q 749 486 747 517 q 728 438 743 485 l 728 354 l 782 358 q 1018 367 1000 364 l 1031 367 q 1092 374 1065 367 l 1174 457 l 1203 463 q 1299 388 1236 447 q 1333 335 1333 364 q 1311 311 1333 311 l 1308 311 q 1285 308 1303 308 q 1140 319 1244 308 l 911 321 q 736 318 772 321 l 731 283 q 750 -14 732 186 q 668 -128 750 -108 q 636 -133 650 -133 z "},"":{"ha":1389,"x_min":40,"x_max":1343,"o":"m 657 1104 q 776 1053 757 1093 q 756 996 776 1024 q 738 918 743 961 l 738 849 q 753 822 735 822 l 1075 824 q 1176 919 1139 892 l 1186 919 q 1304 804 1244 890 q 1272 760 1311 758 q 1160 769 1224 769 l 981 772 q 1011 751 961 769 q 1038 714 1040 736 q 990 644 1038 682 q 960 578 972 615 q 765 249 879 393 l 765 232 q 1158 38 917 101 q 1318 24 1217 24 q 1329 -14 1343 17 q 1226 -72 1318 -33 q 1154 -132 1175 -132 l 1151 -132 q 818 40 1014 -106 q 704 156 747 103 l 689 156 q 661 149 679 156 q 211 -81 517 29 q 81 -122 117 -122 q 67 -75 40 -117 q 203 -26 128 -51 q 575 214 439 76 q 615 269 615 250 l 615 283 q 496 615 550 415 q 351 414 447 599 q 315 399 336 399 l 303 399 q 264 427 300 399 q 228 506 228 456 l 343 574 q 507 732 447 651 q 538 708 538 725 q 525 626 529 683 l 550 558 q 675 342 617 408 l 700 342 q 876 707 804 489 q 889 779 881 747 l 542 778 q 351 778 524 778 q 199 778 264 778 q 90 778 133 778 q 71 792 74 779 q 81 825 65 822 q 207 822 131 826 l 607 822 q 622 896 625 843 q 619 981 625 949 q 611 1093 611 1036 q 657 1104 621 1108 z "},"":{"ha":1389,"x_min":89,"x_max":1301,"o":"m 792 1108 q 915 1078 903 1078 l 918 1071 l 918 1039 q 883 919 883 969 q 894 896 894 901 q 963 904 935 904 q 1029 897 1015 897 l 1106 899 q 1161 960 1106 911 l 1169 960 q 1288 867 1274 908 q 1300 856 1293 867 q 1197 814 1275 815 q 1161 797 1197 804 l 1144 797 q 1121 764 1144 785 l 1106 764 q 1093 776 1100 764 l 1093 788 l 1117 824 l 1117 856 l 1114 864 l 1089 860 q 863 871 892 863 q 779 858 857 863 l 744 861 q 700 853 710 853 q 676 860 693 853 q 633 856 649 856 l 608 854 q 593 858 600 854 q 561 779 571 858 q 510 726 553 726 q 474 721 494 722 l 435 764 q 426 785 435 774 l 426 792 q 478 832 465 813 q 501 876 494 872 l 497 896 l 501 917 q 497 949 497 932 q 518 964 500 957 q 553 917 543 965 q 732 897 553 893 l 760 897 q 800 938 785 897 q 779 997 789 997 l 783 1004 l 783 1040 l 772 1083 q 792 1108 788 1108 m 172 1006 l 200 1007 q 339 949 257 1007 q 363 894 363 906 l 363 867 q 319 818 360 818 q 275 806 319 810 q 232 911 232 858 l 160 969 q 157 993 157 990 l 172 1006 m 113 747 l 125 747 q 215 689 135 738 q 260 599 260 632 q 213 535 260 572 l 196 533 q 132 592 132 564 l 132 596 q 136 664 132 617 q 93 707 93 694 q 89 739 89 722 q 113 747 101 747 m 1038 758 l 1061 760 q 1129 708 1129 740 q 1144 689 1132 710 l 1144 665 q 1133 654 1144 660 l 1061 653 q 1014 660 1014 651 l 986 656 l 935 654 q 894 633 924 654 q 890 597 894 619 l 894 590 q 888 542 890 586 q 931 519 894 535 q 1093 561 1069 521 l 1114 563 q 1197 508 1144 560 q 1165 413 1189 444 q 1176 281 1169 281 l 1172 261 l 1172 210 q 1176 146 1172 186 q 1125 110 1167 110 q 1114 106 1121 110 q 1061 140 1086 104 q 978 131 1047 140 l 954 139 l 931 133 l 918 133 q 890 144 901 146 q 867 133 872 133 q 860 136 860 132 l 832 132 l 788 132 q 772 139 778 139 q 681 129 689 129 q 649 133 653 133 q 608 93 622 132 q 574 81 594 81 l 561 79 q 538 103 538 92 q 546 207 538 147 q 542 218 546 211 q 546 301 546 271 l 546 357 q 542 393 546 372 q 553 449 553 425 q 542 544 542 524 q 565 564 543 544 l 636 522 q 685 526 664 522 q 796 517 786 524 q 807 600 807 547 q 788 656 796 650 q 783 660 783 656 l 776 656 l 749 654 l 657 657 l 653 657 q 574 660 618 657 q 542 656 558 656 l 529 671 q 546 699 529 692 l 588 696 q 629 692 593 696 l 915 689 q 974 694 932 693 l 978 694 l 1038 758 m 379 696 q 394 685 394 690 l 394 664 q 319 461 379 603 l 275 306 l 275 281 q 268 269 275 279 l 268 265 q 271 250 268 256 q 260 197 260 229 l 260 158 q 315 19 271 81 l 315 15 q 311 0 315 7 q 324 -39 324 -31 l 324 -60 q 264 -128 310 -128 q 260 -132 264 -132 l 236 -132 q 181 -82 181 -118 q 176 -78 176 -82 l 176 -42 q 185 1 185 -4 l 185 74 q 129 160 163 143 q 104 183 124 160 l 104 199 q 160 236 107 208 l 168 232 q 228 364 221 315 q 268 468 236 364 q 375 696 356 696 l 379 696 m 617 469 l 617 458 q 629 390 629 407 l 629 367 q 644 351 629 361 l 700 353 q 788 342 726 344 q 815 358 788 357 q 819 418 815 378 q 779 489 819 483 l 708 488 q 664 482 692 488 q 633 486 661 486 q 617 469 626 486 m 888 479 l 888 475 l 894 463 l 894 454 q 879 356 894 365 l 879 347 l 888 347 q 950 357 893 347 l 963 357 q 982 346 982 349 l 1022 350 l 1061 350 q 1085 390 1067 350 q 1042 485 1085 478 l 935 492 q 888 479 922 483 m 772 314 l 717 313 q 672 308 700 313 q 649 311 667 313 q 625 260 625 290 q 644 172 625 172 q 649 168 649 172 l 657 172 l 672 174 q 721 163 682 174 l 776 163 l 783 160 q 807 215 807 172 l 807 303 q 800 318 800 313 l 772 314 m 894 313 q 883 268 894 300 q 903 176 903 242 l 903 174 q 1057 164 939 167 q 1082 176 1057 176 q 1078 200 1078 197 q 1082 275 1082 254 q 1065 307 1076 275 q 1026 314 1054 307 l 1018 314 q 982 310 997 314 q 943 313 961 313 l 894 313 m 692 101 q 792 56 744 103 q 804 36 804 43 q 700 -12 804 14 q 522 -100 560 -99 q 510 -115 522 -115 l 506 -115 q 474 -81 476 -117 q 569 -7 531 -50 q 692 101 593 -6 m 1010 103 q 1114 82 1010 92 l 1181 54 q 1283 -26 1260 26 q 1283 -106 1301 -72 q 1264 -126 1275 -121 q 1208 -128 1236 -146 q 1153 -49 1154 -74 q 1101 -3 1147 -49 q 982 71 1038 54 l 982 88 q 1010 103 982 97 z "},"":{"ha":1389,"x_min":69,"x_max":1318,"o":"m 1014 1100 q 1121 972 1121 1011 q 1065 953 1121 956 l 1021 953 q 1018 956 1018 953 l 1010 953 l 969 956 q 946 953 967 956 q 921 956 925 956 q 865 953 888 953 q 861 956 861 953 l 742 944 q 710 949 726 949 q 689 940 689 947 l 650 944 q 550 940 610 944 l 497 953 q 442 944 442 949 l 421 949 l 401 949 q 325 944 369 949 l 318 949 q 289 940 297 940 q 238 992 238 963 l 238 1004 q 269 1017 238 1011 l 289 1013 q 425 1021 349 1013 l 446 1017 l 453 1021 q 518 1008 468 1021 l 521 1008 l 546 1013 q 569 1004 569 1008 q 601 1013 590 1013 q 633 1000 633 1006 q 693 1008 679 1008 q 729 1000 719 1000 l 742 1000 q 786 1008 769 1000 q 821 1000 815 1000 q 925 1028 925 1000 q 989 1096 964 1096 l 1014 1100 m 1174 756 l 1193 756 q 1293 668 1215 756 q 1318 649 1306 668 l 1318 624 q 1269 592 1311 608 q 1238 596 1240 596 q 1182 592 1232 596 q 1150 600 1151 600 q 1089 596 1099 596 q 1014 608 1078 596 q 1001 604 1010 608 q 957 613 965 610 q 921 600 936 600 q 865 604 915 600 l 829 600 l 821 604 q 801 568 807 604 q 757 508 757 553 q 746 260 753 350 q 753 228 753 246 l 753 221 q 746 196 753 210 q 750 153 750 161 l 746 113 l 750 76 l 746 40 q 750 -24 750 8 q 729 -83 736 -81 q 686 -124 725 -83 l 638 -124 l 618 -128 q 529 -44 546 -44 q 461 -8 461 -29 l 461 4 q 501 21 461 17 q 561 0 515 21 q 633 56 633 13 q 650 185 644 163 l 646 204 l 646 244 q 650 281 646 258 l 646 289 q 657 460 646 306 l 657 468 q 653 544 657 506 q 657 585 657 565 q 646 613 657 599 l 638 608 l 550 608 q 514 613 535 608 q 486 608 508 608 l 482 608 q 450 617 453 617 q 433 608 433 615 l 393 613 l 353 613 q 333 596 333 601 q 257 608 322 603 q 210 604 236 604 l 182 608 l 174 604 l 165 608 q 110 604 132 604 l 101 604 q 69 624 79 604 l 69 632 q 89 668 78 668 l 121 668 q 189 656 174 656 l 261 656 q 378 660 307 656 q 393 656 385 656 l 401 660 q 421 653 414 653 q 465 656 457 656 l 474 653 q 486 656 481 656 q 497 653 490 656 l 518 656 q 550 649 543 649 q 561 656 561 653 l 589 653 l 610 653 q 669 656 635 653 l 693 653 l 714 656 q 746 653 717 656 q 893 660 769 653 l 929 656 l 957 660 l 986 656 q 1018 660 1007 660 q 1053 649 1044 649 l 1057 649 q 1129 728 1097 649 q 1174 756 1138 728 m 350 489 q 425 460 404 489 q 501 424 479 444 l 501 400 q 489 389 501 394 q 442 372 464 381 q 353 272 393 328 q 301 196 328 272 q 197 100 274 196 q 114 36 168 82 l 97 32 q 69 76 69 38 q 210 236 210 193 q 246 292 236 264 q 261 324 256 292 q 321 432 286 333 q 333 481 328 432 l 350 489 m 918 428 q 1078 349 929 428 q 1221 224 1114 338 q 1261 132 1261 147 q 1218 32 1261 53 q 1189 13 1201 14 q 1114 104 1146 13 q 1069 228 1114 151 q 925 368 1011 313 q 897 389 908 368 l 897 413 q 918 428 906 428 z "}}}
